*
%FSLAX26Y26*%
%MOIN*%
%ADD10C,0.005906*%
%ADD11C,0.040551*%
%ADD12C,0.009843*%
%ADD13C,0.080709*%
%IPPOS*%
%LNs6i46560a.gko*%
%LPD*%
G75*
G54D10*
X5180709Y1819685D02*
Y118110D01*
X314961Y1937795D02*
X5062598D01*
X196850Y1819685D02*
Y118110D01*
X314961Y1937795D02*
X304179Y1937302D01*
X293487Y1935827D01*
X282975Y1933382D01*
X272730Y1929987D01*
X262837Y1925672D01*
X253380Y1920471D01*
X244436Y1914429D01*
X236082Y1907595D01*
X228387Y1900028D01*
X221414Y1891789D01*
X215222Y1882949D01*
X209864Y1873580D01*
X205383Y1863761D01*
X201817Y1853574D01*
X199196Y1843104D01*
X197541Y1832439D01*
X196867Y1821667D01*
X196850Y1819685D01*
X314961Y0D02*
X5062598D01*
X5073380Y493D01*
X5084072Y1968D01*
X5094584Y4414D01*
X5104830Y7808D01*
X5114722Y12124D01*
X5124180Y17324D01*
X5133123Y23367D01*
X5141477Y30200D01*
X5149173Y37768D01*
X5156145Y46006D01*
X5162337Y54846D01*
X5167695Y64215D01*
X5172176Y74034D01*
X5175742Y84221D01*
X5178363Y94691D01*
X5180018Y105356D01*
X5180692Y116128D01*
X5180709Y118110D01*
Y1819685D02*
X5180216Y1830467D01*
X5178740Y1841158D01*
X5176295Y1851671D01*
X5172901Y1861916D01*
X5168585Y1871809D01*
X5163384Y1881266D01*
X5157342Y1890209D01*
X5150509Y1898564D01*
X5142941Y1906259D01*
X5134703Y1913232D01*
X5125862Y1919423D01*
X5116493Y1924782D01*
X5106675Y1929263D01*
X5096488Y1932829D01*
X5086018Y1935450D01*
X5075352Y1937105D01*
X5064580Y1937779D01*
X5062598Y1937795D01*
X196850Y118110D02*
X197344Y107329D01*
X198819Y96637D01*
X201264Y86124D01*
X204658Y75879D01*
X208974Y65987D01*
X214175Y56529D01*
X220217Y47586D01*
X227050Y39232D01*
X234618Y31536D01*
X242856Y24563D01*
X251697Y18372D01*
X261066Y13013D01*
X270884Y8532D01*
X281071Y4966D01*
X291541Y2345D01*
X302207Y691D01*
X312979Y17D01*
X314961Y0D01*
X5180709Y3820472D02*
Y2118898D01*
X314961Y3938583D02*
X5062598D01*
X196850Y3820472D02*
Y2118898D01*
X314961Y3938583D02*
X304179Y3938090D01*
X293487Y3936614D01*
X282975Y3934169D01*
X272730Y3930775D01*
X262837Y3926459D01*
X253380Y3921258D01*
X244436Y3915216D01*
X236082Y3908383D01*
X228387Y3900815D01*
X221414Y3892577D01*
X215222Y3883736D01*
X209864Y3874367D01*
X205383Y3864549D01*
X201817Y3854362D01*
X199196Y3843892D01*
X197541Y3833226D01*
X196867Y3822454D01*
X196850Y3820472D01*
X314961Y2000787D02*
X5062598D01*
X5073380Y2001281D01*
X5084072Y2002756D01*
X5094584Y2005201D01*
X5104830Y2008595D01*
X5114722Y2012911D01*
X5124180Y2018112D01*
X5133123Y2024154D01*
X5141477Y2030987D01*
X5149173Y2038555D01*
X5156145Y2046793D01*
X5162337Y2055634D01*
X5167695Y2065003D01*
X5172176Y2074821D01*
X5175742Y2085008D01*
X5178363Y2095478D01*
X5180018Y2106144D01*
X5180692Y2116916D01*
X5180709Y2118898D01*
Y3820472D02*
X5180216Y3831254D01*
X5178740Y3841946D01*
X5176295Y3852458D01*
X5172901Y3862704D01*
X5168585Y3872596D01*
X5163384Y3882054D01*
X5157342Y3890997D01*
X5150509Y3899351D01*
X5142941Y3907047D01*
X5134703Y3914019D01*
X5125862Y3920211D01*
X5116493Y3925569D01*
X5106675Y3930050D01*
X5096488Y3933616D01*
X5086018Y3936238D01*
X5075352Y3937892D01*
X5064580Y3938566D01*
X5062598Y3938583D01*
X196850Y2118898D02*
X197344Y2108116D01*
X198819Y2097424D01*
X201264Y2086912D01*
X204658Y2076667D01*
X208974Y2066774D01*
X214175Y2057317D01*
X220217Y2048373D01*
X227050Y2040019D01*
X234618Y2032324D01*
X242856Y2025351D01*
X251697Y2019159D01*
X261066Y2013801D01*
X270884Y2009320D01*
X281071Y2005754D01*
X291541Y2003133D01*
X302207Y2001478D01*
X312979Y2000804D01*
X314961Y2000787D01*
X5180709Y5821260D02*
Y4119685D01*
X314961Y5939370D02*
X5062598D01*
X196850Y5821260D02*
Y4119685D01*
X314961Y5939370D02*
X304179Y5938877D01*
X293487Y5937402D01*
X282975Y5934956D01*
X272730Y5931562D01*
X262837Y5927246D01*
X253380Y5922046D01*
X244436Y5916003D01*
X236082Y5909170D01*
X228387Y5901603D01*
X221414Y5893364D01*
X215222Y5884524D01*
X209864Y5875155D01*
X205383Y5865336D01*
X201817Y5855149D01*
X199196Y5844679D01*
X197541Y5834014D01*
X196867Y5823242D01*
X196850Y5821260D01*
X314961Y4001575D02*
X5062598D01*
X5073380Y4002068D01*
X5084072Y4003543D01*
X5094584Y4005988D01*
X5104830Y4009383D01*
X5114722Y4013699D01*
X5124180Y4018899D01*
X5133123Y4024941D01*
X5141477Y4031775D01*
X5149173Y4039342D01*
X5156145Y4047581D01*
X5162337Y4056421D01*
X5167695Y4065790D01*
X5172176Y4075609D01*
X5175742Y4085796D01*
X5178363Y4096266D01*
X5180018Y4106931D01*
X5180692Y4117703D01*
X5180709Y4119685D01*
Y5821260D02*
X5180216Y5832042D01*
X5178740Y5842733D01*
X5176295Y5853246D01*
X5172901Y5863491D01*
X5168585Y5873384D01*
X5163384Y5882841D01*
X5157342Y5891784D01*
X5150509Y5900138D01*
X5142941Y5907834D01*
X5134703Y5914807D01*
X5125862Y5920998D01*
X5116493Y5926357D01*
X5106675Y5930838D01*
X5096488Y5934404D01*
X5086018Y5937025D01*
X5075352Y5938679D01*
X5064580Y5939353D01*
X5062598Y5939370D01*
X196850Y4119685D02*
X197344Y4108903D01*
X198819Y4098212D01*
X201264Y4087699D01*
X204658Y4077454D01*
X208974Y4067561D01*
X214175Y4058104D01*
X220217Y4049161D01*
X227050Y4040806D01*
X234618Y4033111D01*
X242856Y4026138D01*
X251697Y4019947D01*
X261066Y4014588D01*
X270884Y4010107D01*
X281071Y4006541D01*
X291541Y4003920D01*
X302207Y4002265D01*
X312979Y4001591D01*
X314961Y4001575D01*
X39370Y0D02*
X196850D01*
Y5939370D01*
X39370D01*
X0Y5900000D02*
Y39370D01*
X5180709Y0D02*
X5338189D01*
X5377559Y39370D02*
Y5900000D01*
X5338189Y5939370D02*
X5180709D01*
Y0D01*
X39370D02*
X33163Y492D01*
X27110Y1957D01*
X21365Y4358D01*
X16070Y7635D01*
X11358Y11706D01*
X7346Y16469D01*
X4136Y21804D01*
X1807Y27580D01*
X418Y33650D01*
X0Y39370D01*
X5338189Y0D02*
X5344396Y492D01*
X5350449Y1957D01*
X5356194Y4358D01*
X5361489Y7635D01*
X5366201Y11706D01*
X5370213Y16469D01*
X5373423Y21804D01*
X5375752Y27580D01*
X5377141Y33650D01*
X5377559Y39370D01*
Y5900000D02*
X5377067Y5906208D01*
X5375602Y5912260D01*
X5373201Y5918005D01*
X5369924Y5923300D01*
X5365853Y5928013D01*
X5361090Y5932024D01*
X5355755Y5935234D01*
X5349979Y5937563D01*
X5343909Y5938952D01*
X5338189Y5939370D01*
X39370D02*
X33163Y5938878D01*
X27110Y5937413D01*
X21365Y5935012D01*
X16070Y5931735D01*
X11358Y5927664D01*
X7346Y5922901D01*
X4136Y5917566D01*
X1807Y5911791D01*
X418Y5905720D01*
X0Y5900000D01*
G54D11*
X98425Y590551D03*
Y5545669D03*
X5279134D03*
Y393701D03*
G54D12*
X48228Y590551D02*
X49097Y580606D01*
X52035Y571053D01*
X56804Y562269D01*
X63215Y554601D01*
X71014Y548351D01*
X79896Y543766D01*
X89508Y541027D01*
X99471Y540241D01*
X109394Y541440D01*
X118884Y544577D01*
X127567Y549527D01*
X135100Y556096D01*
X141186Y564024D01*
X145585Y572998D01*
X148124Y582665D01*
X148622Y590551D01*
X147754Y600497D01*
X144815Y610050D01*
X140046Y618833D01*
X133636Y626501D01*
X125836Y632751D01*
X116955Y637336D01*
X107343Y640076D01*
X97379Y640861D01*
X87456Y639662D01*
X77966Y636525D01*
X69284Y631575D01*
X61751Y625006D01*
X55664Y617079D01*
X51265Y608104D01*
X48726Y598437D01*
X48228Y590551D01*
Y5545669D02*
X49097Y5535724D01*
X52035Y5526171D01*
X56804Y5517387D01*
X63215Y5509719D01*
X71014Y5503469D01*
X79896Y5498884D01*
X89508Y5496145D01*
X99471Y5495359D01*
X109394Y5496559D01*
X118884Y5499695D01*
X127567Y5504645D01*
X135100Y5511214D01*
X141186Y5519142D01*
X145585Y5528116D01*
X148124Y5537783D01*
X148622Y5545669D01*
X147754Y5555615D01*
X144815Y5565168D01*
X140046Y5573952D01*
X133636Y5581620D01*
X125836Y5587869D01*
X116955Y5592455D01*
X107343Y5595194D01*
X97379Y5595979D01*
X87456Y5594780D01*
X77966Y5591644D01*
X69284Y5586694D01*
X61751Y5580125D01*
X55664Y5572197D01*
X51265Y5563222D01*
X48726Y5553555D01*
X48228Y5545669D01*
X5228937D02*
X5229806Y5535724D01*
X5232744Y5526171D01*
X5237513Y5517387D01*
X5243923Y5509719D01*
X5251723Y5503469D01*
X5260604Y5498884D01*
X5270216Y5496145D01*
X5280180Y5495359D01*
X5290103Y5496559D01*
X5299593Y5499695D01*
X5308275Y5504645D01*
X5315808Y5511214D01*
X5321895Y5519142D01*
X5326294Y5528116D01*
X5328833Y5537783D01*
X5329331Y5545669D01*
X5328462Y5555615D01*
X5325524Y5565168D01*
X5320755Y5573952D01*
X5314344Y5581620D01*
X5306545Y5587869D01*
X5297663Y5592455D01*
X5288051Y5595194D01*
X5278088Y5595979D01*
X5268165Y5594780D01*
X5258675Y5591644D01*
X5249992Y5586694D01*
X5242459Y5580125D01*
X5236373Y5572197D01*
X5231974Y5563222D01*
X5229435Y5553555D01*
X5228937Y5545669D01*
Y393701D02*
X5229806Y383755D01*
X5232744Y374202D01*
X5237513Y365419D01*
X5243923Y357750D01*
X5251723Y351501D01*
X5260604Y346916D01*
X5270216Y344176D01*
X5280180Y343391D01*
X5290103Y344590D01*
X5299593Y347726D01*
X5308275Y352677D01*
X5315808Y359245D01*
X5321895Y367173D01*
X5326294Y376148D01*
X5328833Y385815D01*
X5329331Y393701D01*
X5328462Y403646D01*
X5325524Y413199D01*
X5320755Y421983D01*
X5314344Y429651D01*
X5306545Y435901D01*
X5297663Y440486D01*
X5288051Y443225D01*
X5278088Y444011D01*
X5268165Y442812D01*
X5258675Y439675D01*
X5249992Y434725D01*
X5242459Y428156D01*
X5236373Y420228D01*
X5231974Y411254D01*
X5229435Y401587D01*
X5228937Y393701D01*
G54D13*
X98425D03*
X5279134Y196850D03*
Y5742520D03*
X98425D03*
M02*
