%TF.GenerationSoftware,KiCad,Pcbnew,9.0.6*%
%TF.CreationDate,2025-12-26T12:29:46+03:00*%
%TF.ProjectId,CamTracker,43616d54-7261-4636-9b65-722e6b696361,rev?*%
%TF.SameCoordinates,Original*%
%TF.FileFunction,Soldermask,Top*%
%TF.FilePolarity,Negative*%
%FSLAX46Y46*%
G04 Gerber Fmt 4.6, Leading zero omitted, Abs format (unit mm)*
G04 Created by KiCad (PCBNEW 9.0.6) date 2025-12-26 12:29:46*
%MOMM*%
%LPD*%
G01*
G04 APERTURE LIST*
G04 Aperture macros list*
%AMRoundRect*
0 Rectangle with rounded corners*
0 $1 Rounding radius*
0 $2 $3 $4 $5 $6 $7 $8 $9 X,Y pos of 4 corners*
0 Add a 4 corners polygon primitive as box body*
4,1,4,$2,$3,$4,$5,$6,$7,$8,$9,$2,$3,0*
0 Add four circle primitives for the rounded corners*
1,1,$1+$1,$2,$3*
1,1,$1+$1,$4,$5*
1,1,$1+$1,$6,$7*
1,1,$1+$1,$8,$9*
0 Add four rect primitives between the rounded corners*
20,1,$1+$1,$2,$3,$4,$5,0*
20,1,$1+$1,$4,$5,$6,$7,0*
20,1,$1+$1,$6,$7,$8,$9,0*
20,1,$1+$1,$8,$9,$2,$3,0*%
G04 Aperture macros list end*
%ADD10C,1.000000*%
%ADD11R,0.950000X1.450000*%
%ADD12R,0.700000X0.600000*%
%ADD13R,1.450000X0.950000*%
%ADD14R,0.600000X0.620000*%
%ADD15R,0.508000X0.660400*%
%ADD16R,1.000000X0.600000*%
%ADD17R,0.600000X0.350000*%
%ADD18R,0.500000X0.300000*%
%ADD19R,0.300000X0.500000*%
%ADD20R,0.620000X0.600000*%
%ADD21R,0.660400X0.508000*%
%ADD22C,0.900000*%
%ADD23RoundRect,0.102000X0.375000X0.900000X-0.375000X0.900000X-0.375000X-0.900000X0.375000X-0.900000X0*%
%ADD24RoundRect,0.102000X0.300000X0.900000X-0.300000X0.900000X-0.300000X-0.900000X0.300000X-0.900000X0*%
%ADD25RoundRect,0.102000X0.650000X0.450000X-0.650000X0.450000X-0.650000X-0.450000X0.650000X-0.450000X0*%
%ADD26R,1.725000X1.725000*%
%ADD27C,1.725000*%
%ADD28R,1.050000X2.200000*%
%ADD29R,1.000000X1.050000*%
%ADD30R,0.650000X1.525000*%
%ADD31R,3.350000X2.710000*%
%ADD32R,0.600000X0.750000*%
%ADD33RoundRect,0.126000X0.126000X-0.226000X0.126000X0.226000X-0.126000X0.226000X-0.126000X-0.226000X0*%
%ADD34R,0.810000X2.820000*%
%ADD35R,1.125000X0.575000*%
%ADD36R,0.425000X1.500000*%
%ADD37R,1.300000X1.920000*%
%ADD38R,2.370000X2.430000*%
%ADD39R,2.500000X0.740000*%
%ADD40R,1.000000X0.580000*%
%ADD41R,0.600000X0.700000*%
%ADD42R,3.439000X3.251000*%
%ADD43R,2.200000X3.100000*%
%ADD44R,0.230000X0.350000*%
%ADD45R,1.200000X0.600000*%
%ADD46C,4.500000*%
%ADD47R,1.425000X0.450000*%
%ADD48R,2.200000X1.050000*%
%ADD49R,1.050000X1.000000*%
%ADD50C,0.750000*%
%ADD51R,0.800000X1.140000*%
%ADD52R,0.700000X2.100000*%
%ADD53R,0.650000X0.750000*%
%ADD54R,0.500000X0.600000*%
%ADD55O,0.750000X2.300000*%
%ADD56O,2.300000X0.750000*%
%ADD57RoundRect,0.050000X0.750000X-0.750000X0.750000X0.750000X-0.750000X0.750000X-0.750000X-0.750000X0*%
%ADD58RoundRect,0.050000X2.250000X-2.250000X2.250000X2.250000X-2.250000X2.250000X-2.250000X-2.250000X0*%
%ADD59R,0.750000X0.600000*%
%ADD60R,2.200000X2.150000*%
%ADD61R,2.692400X1.244600*%
%ADD62RoundRect,0.102000X0.265000X0.200000X-0.265000X0.200000X-0.265000X-0.200000X0.265000X-0.200000X0*%
%ADD63R,0.838200X1.422400*%
%ADD64R,1.168400X0.482600*%
%ADD65R,1.117600X0.482600*%
%ADD66R,1.397000X1.854200*%
%ADD67R,0.711200X2.184400*%
%ADD68R,0.711200X1.651000*%
%ADD69R,0.711200X1.346200*%
%ADD70R,0.635000X1.193800*%
%ADD71R,1.219200X1.549400*%
%ADD72R,0.600000X0.500000*%
%ADD73R,3.100000X2.200000*%
%ADD74C,0.800000*%
%ADD75R,0.940000X0.810000*%
%ADD76C,0.550000*%
%ADD77O,1.200000X2.200000*%
%ADD78O,1.700000X1.200000*%
%ADD79O,1.200000X2.600000*%
%ADD80C,2.200000*%
%ADD81C,2.830000*%
%ADD82C,1.100000*%
%ADD83C,1.600000*%
%ADD84C,6.200000*%
G04 APERTURE END LIST*
D10*
%TO.C,TP51*%
X73300000Y-106850000D03*
%TD*%
D11*
%TO.C,R112*%
X75170000Y-104510000D03*
X73170000Y-104510000D03*
%TD*%
D12*
%TO.C,Q3*%
X108420000Y-67925000D03*
X108420000Y-66025000D03*
X106420000Y-66975000D03*
%TD*%
D13*
%TO.C,R20*%
X116970000Y-79760000D03*
X116970000Y-81760000D03*
%TD*%
D14*
%TO.C,C99*%
X95970000Y-61370000D03*
X96890000Y-61370000D03*
%TD*%
D15*
%TO.C,R62*%
X190680000Y-61748800D03*
X190680000Y-60631200D03*
%TD*%
%TO.C,R69*%
X172610000Y-89351200D03*
X172610000Y-90468800D03*
%TD*%
D16*
%TO.C,U10*%
X113980000Y-67900000D03*
X113980000Y-68850000D03*
X113980000Y-69800000D03*
X116180000Y-69800000D03*
X116180000Y-67900000D03*
%TD*%
D14*
%TO.C,C55*%
X190560000Y-77945000D03*
X191480000Y-77945000D03*
%TD*%
%TO.C,C106*%
X95330000Y-66530000D03*
X94410000Y-66530000D03*
%TD*%
D11*
%TO.C,R56*%
X85840000Y-68170000D03*
X87840000Y-68170000D03*
%TD*%
D17*
%TO.C,D19*%
X117580000Y-63725000D03*
X117580000Y-64375000D03*
%TD*%
D18*
%TO.C,FL3*%
X74613000Y-72365000D03*
X74613000Y-72915000D03*
X75863000Y-72915000D03*
X75863000Y-72365000D03*
D19*
X75238000Y-72150000D03*
X75238000Y-73130000D03*
%TD*%
D15*
%TO.C,R76*%
X173860000Y-89351200D03*
X173860000Y-90468800D03*
%TD*%
D20*
%TO.C,C108*%
X90350000Y-61140000D03*
X90350000Y-62060000D03*
%TD*%
D21*
%TO.C,R2*%
X116568800Y-92930000D03*
X115451200Y-92930000D03*
%TD*%
D20*
%TO.C,C109*%
X89200000Y-66730000D03*
X89200000Y-65810000D03*
%TD*%
D22*
%TO.C,S2*%
X112140000Y-60835000D03*
X107890000Y-60835000D03*
D23*
X111240000Y-61735000D03*
D24*
X110015000Y-61735000D03*
D23*
X108790000Y-61735000D03*
D25*
X111865000Y-59785000D03*
X108165000Y-59785000D03*
%TD*%
D26*
%TO.C,J3*%
X164570000Y-68880000D03*
D27*
X164570000Y-66340000D03*
%TD*%
D28*
%TO.C,J10*%
X143705000Y-61070000D03*
D29*
X145180000Y-62595000D03*
D28*
X146655000Y-61070000D03*
%TD*%
D21*
%TO.C,R40*%
X169588800Y-63998800D03*
X168471200Y-63998800D03*
%TD*%
D15*
%TO.C,R44*%
X166720000Y-72567600D03*
X166720000Y-71450000D03*
%TD*%
D30*
%TO.C,U2*%
X85075000Y-89398000D03*
X86345000Y-89398000D03*
X87615000Y-89398000D03*
X88885000Y-89398000D03*
X88885000Y-84022000D03*
X87615000Y-84022000D03*
X86345000Y-84022000D03*
X85075000Y-84022000D03*
D31*
X86980000Y-86710000D03*
%TD*%
D14*
%TO.C,C59*%
X190560000Y-79115000D03*
X191480000Y-79115000D03*
%TD*%
D20*
%TO.C,C81*%
X112090000Y-87370000D03*
X112090000Y-86450000D03*
%TD*%
D15*
%TO.C,R24*%
X162390000Y-67048800D03*
X162390000Y-65931200D03*
%TD*%
D32*
%TO.C,FB1*%
X176800000Y-65630000D03*
X176800000Y-66730000D03*
%TD*%
D18*
%TO.C,FL4*%
X179150500Y-65165000D03*
X179150500Y-65715000D03*
X180400500Y-65715000D03*
X180400500Y-65165000D03*
D19*
X179775500Y-64950000D03*
X179775500Y-65930000D03*
%TD*%
D33*
%TO.C,D7*%
X109020000Y-94860000D03*
X109020000Y-93860000D03*
%TD*%
D34*
%TO.C,C18*%
X97430000Y-86570000D03*
X100630000Y-86570000D03*
%TD*%
D35*
%TO.C,LED3*%
X105895600Y-82290000D03*
X105895600Y-83215000D03*
D36*
X104770600Y-82752500D03*
%TD*%
D17*
%TO.C,D20*%
X111210000Y-63720000D03*
X111210000Y-64370000D03*
%TD*%
D11*
%TO.C,R87*%
X113810000Y-80950000D03*
X111810000Y-80950000D03*
%TD*%
D21*
%TO.C,R29*%
X102551200Y-66920000D03*
X103668800Y-66920000D03*
%TD*%
%TO.C,R88*%
X191108800Y-69610000D03*
X189991200Y-69610000D03*
%TD*%
D14*
%TO.C,C4*%
X92030000Y-97620000D03*
X92950000Y-97620000D03*
%TD*%
%TO.C,C7*%
X116690000Y-90080000D03*
X115770000Y-90080000D03*
%TD*%
D37*
%TO.C,C2*%
X91550000Y-102690000D03*
X94170000Y-102690000D03*
%TD*%
D20*
%TO.C,C104*%
X175610000Y-65720000D03*
X175610000Y-66640000D03*
%TD*%
%TO.C,C13*%
X115680000Y-101210000D03*
X115680000Y-100290000D03*
%TD*%
D38*
%TO.C,C16*%
X107880000Y-100780000D03*
X101640000Y-100780000D03*
%TD*%
D20*
%TO.C,C41*%
X117700000Y-97300000D03*
X117700000Y-96380000D03*
%TD*%
D15*
%TO.C,R71*%
X167610000Y-89351200D03*
X167610000Y-90468800D03*
%TD*%
D20*
%TO.C,C100*%
X170730000Y-60960000D03*
X170730000Y-61880000D03*
%TD*%
D15*
%TO.C,R34*%
X109570000Y-67888800D03*
X109570000Y-66771200D03*
%TD*%
D21*
%TO.C,R35*%
X112068800Y-67930000D03*
X110951200Y-67930000D03*
%TD*%
D14*
%TO.C,C65*%
X187850000Y-88550000D03*
X188770000Y-88550000D03*
%TD*%
D18*
%TO.C,FL2*%
X74613000Y-68565000D03*
X74613000Y-69115000D03*
X75863000Y-69115000D03*
X75863000Y-68565000D03*
D19*
X75238000Y-68350000D03*
X75238000Y-69330000D03*
%TD*%
D12*
%TO.C,Q6*%
X167960000Y-71083800D03*
X167960000Y-72983800D03*
X169960000Y-72033800D03*
%TD*%
D20*
%TO.C,C40*%
X116600000Y-97270000D03*
X116600000Y-96350000D03*
%TD*%
D39*
%TO.C,J9*%
X183700000Y-64725000D03*
X187700000Y-64725000D03*
X183700000Y-65995000D03*
X187700000Y-65995000D03*
X183700000Y-67265000D03*
X187700000Y-67265000D03*
X183700000Y-68535000D03*
X187700000Y-68535000D03*
X183700000Y-69805000D03*
X187700000Y-69805000D03*
X183700000Y-71075000D03*
X187700000Y-71075000D03*
X183700000Y-72345000D03*
X187700000Y-72345000D03*
X183700000Y-73615000D03*
X187700000Y-73615000D03*
X183700000Y-74885000D03*
X187700000Y-74885000D03*
X183700000Y-76155000D03*
X187700000Y-76155000D03*
%TD*%
D15*
%TO.C,R43*%
X167240000Y-67147600D03*
X167240000Y-66030000D03*
%TD*%
D14*
%TO.C,C98*%
X95950000Y-60280000D03*
X96870000Y-60280000D03*
%TD*%
D40*
%TO.C,D3*%
X77926178Y-96333316D03*
X77926178Y-97453316D03*
%TD*%
D41*
%TO.C,L6*%
X189380000Y-79175000D03*
X189380000Y-77975000D03*
%TD*%
D10*
%TO.C,TP14*%
X111960000Y-96820000D03*
%TD*%
D21*
%TO.C,R103*%
X99008800Y-66550000D03*
X97891200Y-66550000D03*
%TD*%
D26*
%TO.C,J5*%
X138650000Y-61203600D03*
D27*
X136110000Y-61203600D03*
X133570000Y-61203600D03*
%TD*%
D20*
%TO.C,C61*%
X166030000Y-84095000D03*
X166030000Y-83175000D03*
%TD*%
D15*
%TO.C,R73*%
X162610000Y-89351200D03*
X162610000Y-90468800D03*
%TD*%
D11*
%TO.C,R55*%
X85810000Y-66130000D03*
X87810000Y-66130000D03*
%TD*%
D10*
%TO.C,TP25*%
X117600000Y-72330000D03*
%TD*%
D42*
%TO.C,L1*%
X85997000Y-76190000D03*
X94623000Y-76190000D03*
%TD*%
D15*
%TO.C,R79*%
X165110000Y-89351200D03*
X165110000Y-90468800D03*
%TD*%
D22*
%TO.C,S3*%
X105915000Y-60835000D03*
X101665000Y-60835000D03*
D23*
X105015000Y-61735000D03*
D24*
X103790000Y-61735000D03*
D23*
X102565000Y-61735000D03*
D25*
X105640000Y-59785000D03*
X101940000Y-59785000D03*
%TD*%
D21*
%TO.C,R41*%
X168968800Y-69698800D03*
X167851200Y-69698800D03*
%TD*%
%TO.C,R111*%
X192218800Y-73570000D03*
X191101200Y-73570000D03*
%TD*%
D43*
%TO.C,D4*%
X89780000Y-93860000D03*
X82780000Y-93860000D03*
%TD*%
D14*
%TO.C,C101*%
X171750000Y-60910000D03*
X172670000Y-60910000D03*
%TD*%
D15*
%TO.C,R5*%
X90360000Y-86021200D03*
X90360000Y-87138800D03*
%TD*%
D20*
%TO.C,C10*%
X117820000Y-101190000D03*
X117820000Y-100270000D03*
%TD*%
D15*
%TO.C,R36*%
X116300000Y-64738800D03*
X116300000Y-63621200D03*
%TD*%
D21*
%TO.C,R51*%
X85808800Y-69870000D03*
X84691200Y-69870000D03*
%TD*%
D18*
%TO.C,FL1*%
X74613000Y-64765000D03*
X74613000Y-65315000D03*
X75863000Y-65315000D03*
X75863000Y-64765000D03*
D19*
X75238000Y-64550000D03*
X75238000Y-65530000D03*
%TD*%
D44*
%TO.C,D11*%
X131130000Y-61471200D03*
X131510000Y-61471200D03*
D17*
X131320000Y-60821200D03*
%TD*%
D45*
%TO.C,D24*%
X183440000Y-88460000D03*
X183440000Y-89410000D03*
X183440000Y-90360000D03*
X185940000Y-90360000D03*
X185940000Y-89410000D03*
X185940000Y-88460000D03*
%TD*%
D10*
%TO.C,TP1*%
X119060000Y-65630000D03*
%TD*%
D15*
%TO.C,R3*%
X90400000Y-89668800D03*
X90400000Y-88551200D03*
%TD*%
D21*
%TO.C,R42*%
X163481200Y-60370000D03*
X164598800Y-60370000D03*
%TD*%
D46*
%TO.C,M701*%
X191030000Y-83650000D03*
%TD*%
D20*
%TO.C,C75*%
X109420000Y-80420000D03*
X109420000Y-81340000D03*
%TD*%
%TO.C,C107*%
X91660000Y-64490000D03*
X91660000Y-63570000D03*
%TD*%
%TO.C,C73*%
X110500000Y-80420000D03*
X110500000Y-81340000D03*
%TD*%
%TO.C,C57*%
X79895000Y-82060000D03*
X79895000Y-82980000D03*
%TD*%
D21*
%TO.C,R75*%
X180911200Y-85810000D03*
X182028800Y-85810000D03*
%TD*%
%TO.C,R90*%
X113441200Y-87370000D03*
X114558800Y-87370000D03*
%TD*%
%TO.C,R61*%
X89221200Y-68870000D03*
X90338800Y-68870000D03*
%TD*%
D17*
%TO.C,D28*%
X167800000Y-86740000D03*
X167800000Y-86090000D03*
%TD*%
D47*
%TO.C,U13*%
X98962000Y-64965000D03*
X98962000Y-64315000D03*
X98962000Y-63665000D03*
X98962000Y-63015000D03*
X94538000Y-63015000D03*
X94538000Y-63665000D03*
X94538000Y-64315000D03*
X94538000Y-64965000D03*
%TD*%
D10*
%TO.C,J27*%
X86190000Y-62065000D03*
X86190000Y-63315000D03*
%TD*%
D11*
%TO.C,R58*%
X190640000Y-65950000D03*
X192640000Y-65950000D03*
%TD*%
D20*
%TO.C,C6*%
X83640000Y-85700000D03*
X83640000Y-84780000D03*
%TD*%
D11*
%TO.C,R31*%
X113360000Y-72240000D03*
X111360000Y-72240000D03*
%TD*%
D15*
%TO.C,R45*%
X171080000Y-63680000D03*
X171080000Y-64797600D03*
%TD*%
D21*
%TO.C,R110*%
X192218800Y-72440000D03*
X191101200Y-72440000D03*
%TD*%
D10*
%TO.C,TP32*%
X161350000Y-103760000D03*
%TD*%
D14*
%TO.C,C103*%
X172660000Y-61930000D03*
X171740000Y-61930000D03*
%TD*%
D15*
%TO.C,R11*%
X91660000Y-83481200D03*
X91660000Y-84598800D03*
%TD*%
D48*
%TO.C,J15*%
X108346427Y-88865000D03*
D49*
X109871427Y-87390000D03*
D48*
X108346427Y-85915000D03*
%TD*%
D15*
%TO.C,R49*%
X176640000Y-77631200D03*
X176640000Y-78748800D03*
%TD*%
D14*
%TO.C,C9*%
X87530000Y-82550000D03*
X86610000Y-82550000D03*
%TD*%
D50*
%TO.C,J13*%
X181690000Y-105840000D03*
X190190000Y-105840000D03*
D51*
X186940000Y-93610000D03*
X184400000Y-93610000D03*
X181860000Y-93610000D03*
X188210000Y-93610000D03*
X185670000Y-93610000D03*
X183130000Y-93610000D03*
X189160000Y-93610000D03*
D52*
X193190000Y-95090000D03*
X180190000Y-95090000D03*
X180190000Y-107090000D03*
X193190000Y-107090000D03*
%TD*%
D10*
%TO.C,TP24*%
X115350000Y-74370000D03*
%TD*%
D20*
%TO.C,C37*%
X116760000Y-101170000D03*
X116760000Y-100250000D03*
%TD*%
D28*
%TO.C,J16*%
X153735000Y-61070000D03*
D29*
X155210000Y-62595000D03*
D28*
X156685000Y-61070000D03*
%TD*%
D41*
%TO.C,Q2*%
X98835000Y-67930000D03*
X96935000Y-67930000D03*
X97885000Y-69930000D03*
%TD*%
D12*
%TO.C,L4*%
X78675000Y-81010000D03*
X79875000Y-81010000D03*
%TD*%
D11*
%TO.C,R57*%
X190640000Y-63400000D03*
X192640000Y-63400000D03*
%TD*%
D21*
%TO.C,R54*%
X176652400Y-76070000D03*
X177770000Y-76070000D03*
%TD*%
D37*
%TO.C,C1*%
X91550000Y-100270000D03*
X94170000Y-100270000D03*
%TD*%
D14*
%TO.C,C63*%
X179200000Y-89963333D03*
X180120000Y-89963333D03*
%TD*%
D21*
%TO.C,R101*%
X99268800Y-61430000D03*
X98151200Y-61430000D03*
%TD*%
%TO.C,R66*%
X180218800Y-91010000D03*
X179101200Y-91010000D03*
%TD*%
D53*
%TO.C,L8*%
X109420000Y-78450000D03*
X109420000Y-77350000D03*
%TD*%
D21*
%TO.C,R100*%
X99268800Y-60200000D03*
X98151200Y-60200000D03*
%TD*%
D54*
%TO.C,LED2*%
X94115000Y-70040000D03*
X93215000Y-70040000D03*
%TD*%
D14*
%TO.C,C5*%
X116670000Y-91220000D03*
X115750000Y-91220000D03*
%TD*%
D17*
%TO.C,D21*%
X105050000Y-63750000D03*
X105050000Y-64400000D03*
%TD*%
D40*
%TO.C,D12*%
X113890000Y-97160000D03*
X113890000Y-96040000D03*
%TD*%
D14*
%TO.C,C12*%
X114000000Y-84510000D03*
X113080000Y-84510000D03*
%TD*%
D10*
%TO.C,TP7*%
X114090000Y-103310000D03*
%TD*%
D20*
%TO.C,C105*%
X92720000Y-63580000D03*
X92720000Y-64500000D03*
%TD*%
D17*
%TO.C,D26*%
X172560000Y-86740000D03*
X172560000Y-86090000D03*
%TD*%
D55*
%TO.C,U1*%
X122180000Y-105010000D03*
X123180000Y-105010000D03*
X124180000Y-105010000D03*
X125180000Y-105010000D03*
X126180000Y-105010000D03*
X127180000Y-105010000D03*
X128180000Y-105010000D03*
X129180000Y-105010000D03*
X130180000Y-105010000D03*
X131180000Y-105010000D03*
X132180000Y-105010000D03*
X133180000Y-105010000D03*
X134180000Y-105010000D03*
X135180000Y-105010000D03*
X136180000Y-105010000D03*
X137180000Y-105010000D03*
X138180000Y-105010000D03*
X139180000Y-105010000D03*
X140180000Y-105010000D03*
X141180000Y-105010000D03*
X142180000Y-105010000D03*
X143180000Y-105010000D03*
X144180000Y-105010000D03*
X145180000Y-105010000D03*
X146180000Y-105010000D03*
X147180000Y-105010000D03*
X148180000Y-105010000D03*
X149180000Y-105010000D03*
X150180000Y-105010000D03*
X151180000Y-105010000D03*
X152180000Y-105010000D03*
X153180000Y-105010000D03*
X154180000Y-105010000D03*
X155180000Y-105010000D03*
X156180000Y-105010000D03*
X157180000Y-105010000D03*
X158180000Y-105010000D03*
D56*
X160330000Y-102360000D03*
X160330000Y-101360000D03*
X160330000Y-100360000D03*
X160330000Y-99360000D03*
X160330000Y-98360000D03*
X160330000Y-97360000D03*
X160330000Y-96360000D03*
X160330000Y-95360000D03*
X160330000Y-94360000D03*
X160330000Y-93360000D03*
X160330000Y-92360000D03*
X160330000Y-91360000D03*
X160330000Y-90360000D03*
X160330000Y-89360000D03*
X160330000Y-88360000D03*
X160330000Y-87360000D03*
X160330000Y-86360000D03*
X160330000Y-85360000D03*
X160330000Y-84360000D03*
X160330000Y-83360000D03*
X160330000Y-82360000D03*
X160330000Y-81360000D03*
X160330000Y-80360000D03*
X160330000Y-79360000D03*
X160330000Y-78360000D03*
X160330000Y-77360000D03*
X160330000Y-76360000D03*
X160330000Y-75360000D03*
X160330000Y-74360000D03*
X160330000Y-73360000D03*
X160330000Y-72360000D03*
X160330000Y-71360000D03*
X160330000Y-70360000D03*
X160330000Y-69360000D03*
X160330000Y-68360000D03*
X160330000Y-67360000D03*
D55*
X158180000Y-64710000D03*
X157180000Y-64710000D03*
X156180000Y-64710000D03*
X155180000Y-64710000D03*
X154180000Y-64710000D03*
X153180000Y-64710000D03*
X152180000Y-64710000D03*
X151180000Y-64710000D03*
X150180000Y-64710000D03*
X149180000Y-64710000D03*
X148180000Y-64710000D03*
X147180000Y-64710000D03*
X146180000Y-64710000D03*
X145180000Y-64710000D03*
X144180000Y-64710000D03*
X143180000Y-64710000D03*
X142180000Y-64710000D03*
X141180000Y-64710000D03*
X140180000Y-64710000D03*
X139180000Y-64710000D03*
X138180000Y-64710000D03*
X137180000Y-64710000D03*
X136180000Y-64710000D03*
X135180000Y-64710000D03*
X134180000Y-64710000D03*
X133180000Y-64710000D03*
X132180000Y-64710000D03*
X131180000Y-64710000D03*
X130180000Y-64710000D03*
X129180000Y-64710000D03*
X128180000Y-64710000D03*
X127180000Y-64710000D03*
X126180000Y-64710000D03*
X125180000Y-64710000D03*
X124180000Y-64710000D03*
X123180000Y-64710000D03*
X122180000Y-64710000D03*
D56*
X120030000Y-67360000D03*
X120030000Y-68360000D03*
X120030000Y-69360000D03*
X120030000Y-70360000D03*
X120030000Y-71360000D03*
X120030000Y-72360000D03*
X120030000Y-73360000D03*
X120030000Y-74360000D03*
X120030000Y-75360000D03*
X120030000Y-76360000D03*
X120030000Y-77360000D03*
X120030000Y-78360000D03*
X120030000Y-79360000D03*
X120030000Y-80360000D03*
X120030000Y-81360000D03*
X120030000Y-82360000D03*
X120030000Y-83360000D03*
X120030000Y-84360000D03*
X120030000Y-85360000D03*
X120030000Y-86360000D03*
X120030000Y-87360000D03*
X120030000Y-88360000D03*
X120030000Y-89360000D03*
X120030000Y-90360000D03*
X120030000Y-91360000D03*
X120030000Y-92360000D03*
X120030000Y-93360000D03*
X120030000Y-94360000D03*
X120030000Y-95360000D03*
X120030000Y-96360000D03*
X120030000Y-97360000D03*
X120030000Y-98360000D03*
X120030000Y-99360000D03*
X120030000Y-100360000D03*
X120030000Y-101360000D03*
X120030000Y-102360000D03*
D57*
X126680000Y-101360000D03*
X129680000Y-101360000D03*
X132680000Y-101360000D03*
X135680000Y-101360000D03*
X138680000Y-101360000D03*
X141680000Y-101360000D03*
X144680000Y-101360000D03*
X147680000Y-101360000D03*
X150680000Y-101360000D03*
X153680000Y-101360000D03*
X156680000Y-98360000D03*
X156680000Y-95360000D03*
X156680000Y-92360000D03*
X156680000Y-89360000D03*
X156680000Y-86360000D03*
X156680000Y-83360000D03*
X156680000Y-80360000D03*
X156680000Y-77360000D03*
X156680000Y-74360000D03*
X156680000Y-71360000D03*
X153680000Y-68360000D03*
X150680000Y-68360000D03*
X147680000Y-68360000D03*
X144680000Y-68360000D03*
X141680000Y-68360000D03*
X138680000Y-68360000D03*
X135680000Y-68360000D03*
X132680000Y-68360000D03*
X129680000Y-68360000D03*
X126680000Y-68360000D03*
X123680000Y-71360000D03*
X123680000Y-74360000D03*
X123680000Y-77360000D03*
X123680000Y-80360000D03*
X123680000Y-83360000D03*
X123680000Y-86360000D03*
X123680000Y-89360000D03*
X123680000Y-92360000D03*
X123680000Y-95360000D03*
X123680000Y-98360000D03*
X126680000Y-98360000D03*
X129680000Y-98360000D03*
X132680000Y-98360000D03*
X135680000Y-98360000D03*
X138680000Y-98360000D03*
X141680000Y-98360000D03*
X144680000Y-98360000D03*
X147680000Y-98360000D03*
X150680000Y-98360000D03*
X153680000Y-98360000D03*
X153680000Y-95360000D03*
X153680000Y-92360000D03*
X153680000Y-89360000D03*
X153680000Y-86360000D03*
X153680000Y-83360000D03*
X153680000Y-80360000D03*
X153680000Y-77360000D03*
X153680000Y-74360000D03*
X153680000Y-71360000D03*
X150680000Y-71360000D03*
X147680000Y-71360000D03*
X144680000Y-71360000D03*
X141680000Y-71360000D03*
X138680000Y-71360000D03*
X135680000Y-71360000D03*
X132680000Y-71360000D03*
X129680000Y-71360000D03*
X126680000Y-71360000D03*
X126680000Y-74360000D03*
X126680000Y-77360000D03*
X126680000Y-80360000D03*
X126680000Y-83360000D03*
X126680000Y-86360000D03*
X126680000Y-89360000D03*
X126680000Y-92360000D03*
X126680000Y-95360000D03*
X129680000Y-95360000D03*
X132680000Y-95360000D03*
X135680000Y-95360000D03*
X138680000Y-95360000D03*
X141680000Y-95360000D03*
X144680000Y-95360000D03*
X147680000Y-95360000D03*
X150680000Y-95360000D03*
X150680000Y-92360000D03*
X150680000Y-89360000D03*
X150680000Y-86360000D03*
X150680000Y-83360000D03*
X150680000Y-80360000D03*
X150680000Y-77360000D03*
X150680000Y-74360000D03*
X147680000Y-74360000D03*
X144680000Y-74360000D03*
X141680000Y-74360000D03*
X138680000Y-74360000D03*
X135680000Y-74360000D03*
X132680000Y-74360000D03*
X129680000Y-74360000D03*
X129680000Y-77360000D03*
X129680000Y-80360000D03*
X129680000Y-83360000D03*
X129680000Y-86360000D03*
X129680000Y-89360000D03*
X129680000Y-92360000D03*
X132680000Y-92360000D03*
X135680000Y-92360000D03*
X138680000Y-92360000D03*
X141680000Y-92360000D03*
X144680000Y-92360000D03*
X147680000Y-92360000D03*
X147680000Y-89360000D03*
X147680000Y-86360000D03*
X147680000Y-83360000D03*
X147680000Y-80360000D03*
X147680000Y-77360000D03*
X144680000Y-77360000D03*
X141680000Y-77360000D03*
X138680000Y-77360000D03*
X135680000Y-77360000D03*
X132680000Y-77360000D03*
X132680000Y-80360000D03*
X132680000Y-83360000D03*
X132680000Y-86360000D03*
X132680000Y-89360000D03*
D58*
X137180000Y-87860000D03*
X143180000Y-87860000D03*
X143180000Y-81860000D03*
X137180000Y-81860000D03*
%TD*%
D20*
%TO.C,C110*%
X89210000Y-61130000D03*
X89210000Y-62050000D03*
%TD*%
D15*
%TO.C,R46*%
X170440000Y-69581200D03*
X170440000Y-70698800D03*
%TD*%
%TO.C,R64*%
X167330000Y-83086200D03*
X167330000Y-84203800D03*
%TD*%
D21*
%TO.C,R65*%
X187561200Y-90730000D03*
X188678800Y-90730000D03*
%TD*%
D10*
%TO.C,TP9*%
X104420000Y-92240000D03*
%TD*%
D15*
%TO.C,R102*%
X174280000Y-65621200D03*
X174280000Y-66738800D03*
%TD*%
D21*
%TO.C,R1*%
X116537600Y-94180000D03*
X115420000Y-94180000D03*
%TD*%
D15*
%TO.C,R68*%
X175110000Y-89351200D03*
X175110000Y-90468800D03*
%TD*%
D14*
%TO.C,C80*%
X111630000Y-77360000D03*
X110710000Y-77360000D03*
%TD*%
D15*
%TO.C,R77*%
X171360000Y-89351200D03*
X171360000Y-90468800D03*
%TD*%
D10*
%TO.C,TP4*%
X117500000Y-85730000D03*
%TD*%
D15*
%TO.C,R39*%
X166180000Y-61661200D03*
X166180000Y-62778800D03*
%TD*%
D59*
%TO.C,FB3*%
X90360000Y-63300000D03*
X89260000Y-63300000D03*
%TD*%
D21*
%TO.C,R52*%
X179608800Y-79770000D03*
X178491200Y-79770000D03*
%TD*%
%TO.C,R89*%
X113911200Y-77340000D03*
X115028800Y-77340000D03*
%TD*%
D34*
%TO.C,C19*%
X97460000Y-76460000D03*
X100660000Y-76460000D03*
%TD*%
D60*
%TO.C,D2*%
X78090000Y-89820000D03*
X73690000Y-89820000D03*
%TD*%
D15*
%TO.C,R78*%
X168860000Y-89351200D03*
X168860000Y-90468800D03*
%TD*%
%TO.C,R4*%
X90317000Y-83481200D03*
X90317000Y-84598800D03*
%TD*%
D37*
%TO.C,C3*%
X91570000Y-105070000D03*
X94190000Y-105070000D03*
%TD*%
D15*
%TO.C,R72*%
X166360000Y-89351200D03*
X166360000Y-90468800D03*
%TD*%
D12*
%TO.C,Q4*%
X168520000Y-65307600D03*
X168520000Y-67207600D03*
X170520000Y-66257600D03*
%TD*%
D61*
%TO.C,C15*%
X117720000Y-104080000D03*
X117720000Y-107051800D03*
%TD*%
D62*
%TO.C,D5*%
X114000000Y-83190000D03*
X112400000Y-83190000D03*
%TD*%
D41*
%TO.C,Q5*%
X164900000Y-61610000D03*
X163000000Y-61610000D03*
X163950000Y-63610000D03*
%TD*%
D21*
%TO.C,R67*%
X180218800Y-87870000D03*
X179101200Y-87870000D03*
%TD*%
D37*
%TO.C,C23*%
X79590000Y-106670000D03*
X76970000Y-106670000D03*
%TD*%
D15*
%TO.C,R23*%
X140860000Y-61828800D03*
X140860000Y-60711200D03*
%TD*%
%TO.C,R37*%
X109970000Y-64738800D03*
X109970000Y-63621200D03*
%TD*%
D21*
%TO.C,R59*%
X89221200Y-70090000D03*
X90338800Y-70090000D03*
%TD*%
D63*
%TO.C,J18*%
X173075000Y-103635799D03*
X171975000Y-103635799D03*
X170874999Y-103635799D03*
X169774999Y-103635799D03*
X168675001Y-103635799D03*
X167575001Y-103635799D03*
X166475000Y-103635799D03*
X165375000Y-103635799D03*
D64*
X164410001Y-91810801D03*
D65*
X164384999Y-92470800D03*
D66*
X164510001Y-105685800D03*
D67*
X164160001Y-99055800D03*
D68*
X164160001Y-93975800D03*
D69*
X178059999Y-92035800D03*
D70*
X178085000Y-97960799D03*
D71*
X177805001Y-105935800D03*
%TD*%
D14*
%TO.C,C52*%
X116470000Y-66530000D03*
X115550000Y-66530000D03*
%TD*%
D20*
%TO.C,C77*%
X116290000Y-77360000D03*
X116290000Y-76440000D03*
%TD*%
D39*
%TO.C,J8*%
X77940000Y-64642500D03*
X81940000Y-64642500D03*
X77940000Y-65912500D03*
X81940000Y-65912500D03*
X77940000Y-67182500D03*
X81940000Y-67182500D03*
X77940000Y-68452500D03*
X81940000Y-68452500D03*
X77940000Y-69722500D03*
X81940000Y-69722500D03*
X77940000Y-70992500D03*
X81940000Y-70992500D03*
X77940000Y-72262500D03*
X81940000Y-72262500D03*
X77940000Y-73532500D03*
X81940000Y-73532500D03*
X77940000Y-74802500D03*
X81940000Y-74802500D03*
X77940000Y-76072500D03*
X81940000Y-76072500D03*
%TD*%
D21*
%TO.C,R74*%
X184410000Y-86940000D03*
X183292400Y-86940000D03*
%TD*%
D20*
%TO.C,C78*%
X115950000Y-87360000D03*
X115950000Y-86440000D03*
%TD*%
D10*
%TO.C,TP26*%
X115400000Y-72330000D03*
%TD*%
D14*
%TO.C,C64*%
X179200000Y-88916667D03*
X180120000Y-88916667D03*
%TD*%
D34*
%TO.C,C17*%
X97460000Y-83200000D03*
X100660000Y-83200000D03*
%TD*%
D59*
%TO.C,FB2*%
X90370000Y-64700000D03*
X89270000Y-64700000D03*
%TD*%
D14*
%TO.C,C8*%
X116690000Y-88960000D03*
X115770000Y-88960000D03*
%TD*%
D40*
%TO.C,D6*%
X110360000Y-94930000D03*
X110360000Y-93810000D03*
%TD*%
D41*
%TO.C,Q9*%
X178020000Y-78590000D03*
X179920000Y-78590000D03*
X178970000Y-76590000D03*
%TD*%
D18*
%TO.C,FL5*%
X179150500Y-68835000D03*
X179150500Y-69385000D03*
X180400500Y-69385000D03*
X180400500Y-68835000D03*
D19*
X179775500Y-68620000D03*
X179775500Y-69600000D03*
%TD*%
D10*
%TO.C,TP23*%
X117550000Y-74360000D03*
%TD*%
D11*
%TO.C,R6*%
X115180000Y-83650000D03*
X117180000Y-83650000D03*
%TD*%
D46*
%TO.C,M701*%
X74640000Y-83650000D03*
%TD*%
D15*
%TO.C,R80*%
X163860000Y-89351200D03*
X163860000Y-90468800D03*
%TD*%
D17*
%TO.C,D22*%
X164770000Y-83425000D03*
X164770000Y-84075000D03*
%TD*%
%TO.C,D29*%
X165170000Y-86740000D03*
X165170000Y-86090000D03*
%TD*%
D15*
%TO.C,R32*%
X97370000Y-72418800D03*
X97370000Y-71301200D03*
%TD*%
D48*
%TO.C,J17*%
X105930000Y-78825000D03*
D49*
X107455000Y-77350000D03*
D48*
X105930000Y-75875000D03*
%TD*%
D15*
%TO.C,R30*%
X102530000Y-63621200D03*
X102530000Y-64738800D03*
%TD*%
D10*
%TO.C,TP13*%
X159320000Y-106020000D03*
%TD*%
%TO.C,TP30*%
X138120000Y-107050000D03*
%TD*%
D72*
%TO.C,LED1*%
X91580000Y-86830000D03*
X91580000Y-85930000D03*
%TD*%
D20*
%TO.C,C102*%
X173150000Y-66640000D03*
X173150000Y-65720000D03*
%TD*%
D15*
%TO.C,R70*%
X170110000Y-89351200D03*
X170110000Y-90468800D03*
%TD*%
D17*
%TO.C,D9*%
X162390000Y-68991200D03*
X162390000Y-69641200D03*
%TD*%
D15*
%TO.C,R38*%
X103780000Y-64818800D03*
X103780000Y-63701200D03*
%TD*%
D73*
%TO.C,D8*%
X84500000Y-99440000D03*
X84500000Y-106440000D03*
%TD*%
D14*
%TO.C,C24*%
X77620000Y-104880000D03*
X76700000Y-104880000D03*
%TD*%
D34*
%TO.C,C20*%
X97460000Y-79820000D03*
X100660000Y-79820000D03*
%TD*%
D12*
%TO.C,Q1*%
X107670000Y-71110000D03*
X107670000Y-73010000D03*
X109670000Y-72060000D03*
%TD*%
D17*
%TO.C,D30*%
X162540000Y-86740000D03*
X162540000Y-86090000D03*
%TD*%
D20*
%TO.C,C79*%
X112700000Y-77360000D03*
X112700000Y-76440000D03*
%TD*%
D22*
%TO.C,S1*%
X118415000Y-60835000D03*
X114165000Y-60835000D03*
D23*
X117515000Y-61735000D03*
D24*
X116290000Y-61735000D03*
D23*
X115065000Y-61735000D03*
D25*
X118140000Y-59785000D03*
X114440000Y-59785000D03*
%TD*%
D14*
%TO.C,C62*%
X188810000Y-89610000D03*
X187890000Y-89610000D03*
%TD*%
D17*
%TO.C,D27*%
X170040000Y-86750000D03*
X170040000Y-86100000D03*
%TD*%
D20*
%TO.C,C51*%
X112190000Y-69030000D03*
X112190000Y-69950000D03*
%TD*%
%TO.C,C53*%
X78805000Y-82060000D03*
X78805000Y-82980000D03*
%TD*%
D18*
%TO.C,FL6*%
X179150500Y-72665000D03*
X179150500Y-73215000D03*
X180400500Y-73215000D03*
X180400500Y-72665000D03*
D19*
X179775500Y-72450000D03*
X179775500Y-73430000D03*
%TD*%
D21*
%TO.C,R33*%
X107828800Y-69240000D03*
X106711200Y-69240000D03*
%TD*%
%TO.C,R63*%
X165888800Y-82025000D03*
X164771200Y-82025000D03*
%TD*%
D74*
%TO.C,MK1*%
X176940000Y-60900000D03*
X176940000Y-63360000D03*
X175240000Y-63360000D03*
X175240000Y-60900000D03*
%TD*%
D15*
%TO.C,R60*%
X192040000Y-61748800D03*
X192040000Y-60631200D03*
%TD*%
D17*
%TO.C,D25*%
X175130000Y-86710000D03*
X175130000Y-86060000D03*
%TD*%
D10*
%TO.C,TP12*%
X161460000Y-106150000D03*
%TD*%
D75*
%TO.C,C42*%
X115420000Y-97240000D03*
X115420000Y-95900000D03*
%TD*%
D76*
%TO.C,J6*%
X96430000Y-102220000D03*
X89630000Y-102220000D03*
D77*
X97350000Y-100880860D03*
D78*
X97070600Y-101388860D03*
X88988320Y-101388860D03*
D77*
X88708920Y-100880860D03*
D79*
X97350000Y-105430000D03*
X88708920Y-105430000D03*
%TD*%
D26*
%TO.C,J2*%
X106900000Y-94890000D03*
D27*
X104360000Y-94890000D03*
%TD*%
D26*
%TO.C,J21*%
X112190000Y-106560000D03*
D27*
X114730000Y-106560000D03*
%TD*%
D80*
%TO.C,J1*%
X79480000Y-103920000D03*
D81*
X79480000Y-93420000D03*
X79480000Y-99420000D03*
X74780000Y-96420000D03*
%TD*%
D41*
%TO.C,Q7*%
X73310000Y-102650000D03*
X75210000Y-102650000D03*
X74260000Y-100650000D03*
%TD*%
D10*
%TO.C,TP50*%
X72870000Y-98690000D03*
%TD*%
D26*
%TO.C,J7*%
X121367500Y-61270000D03*
D27*
X123907500Y-61270000D03*
X126447500Y-61270000D03*
X128987500Y-61270000D03*
%TD*%
D82*
%TO.C,J28*%
X181240000Y-81960000D03*
D83*
X181240000Y-61960000D03*
D84*
X102805114Y-71960000D03*
%TD*%
G36*
X194184893Y-59223264D02*
G01*
X194272377Y-59253875D01*
X194285226Y-59259197D01*
X194576025Y-59399239D01*
X194588195Y-59405965D01*
X194861486Y-59577685D01*
X194872827Y-59585732D01*
X195125173Y-59786971D01*
X195135541Y-59796237D01*
X195363762Y-60024458D01*
X195373028Y-60034826D01*
X195574267Y-60287172D01*
X195582314Y-60298513D01*
X195754034Y-60571804D01*
X195760760Y-60583974D01*
X195900798Y-60874766D01*
X195906120Y-60887613D01*
X196012724Y-61192270D01*
X196016573Y-61205632D01*
X196086891Y-61513713D01*
X196090000Y-61541306D01*
X196090000Y-105738693D01*
X196086891Y-105766286D01*
X196016573Y-106074367D01*
X196012724Y-106087729D01*
X195906120Y-106392386D01*
X195900798Y-106405233D01*
X195760760Y-106696025D01*
X195754034Y-106708195D01*
X195582314Y-106981486D01*
X195574267Y-106992827D01*
X195373028Y-107245173D01*
X195363762Y-107255541D01*
X195135541Y-107483762D01*
X195125173Y-107493028D01*
X194872827Y-107694267D01*
X194861486Y-107702314D01*
X194588195Y-107874034D01*
X194576025Y-107880760D01*
X194285231Y-108020799D01*
X194272383Y-108026121D01*
X194175015Y-108060191D01*
X194105236Y-108063752D01*
X194044609Y-108029023D01*
X194012382Y-107967029D01*
X194010061Y-107943124D01*
X194019940Y-59340281D01*
X194039638Y-59273245D01*
X194092451Y-59227501D01*
X194161612Y-59217572D01*
X194184893Y-59223264D01*
G37*
G36*
X71595451Y-59261449D02*
G01*
X71627679Y-59323442D01*
X71630000Y-59347324D01*
X71630000Y-107932673D01*
X71610315Y-107999712D01*
X71557511Y-108045467D01*
X71488353Y-108055411D01*
X71465046Y-108049715D01*
X71397614Y-108026120D01*
X71384766Y-108020798D01*
X71093974Y-107880760D01*
X71081804Y-107874034D01*
X70808513Y-107702314D01*
X70797172Y-107694267D01*
X70544826Y-107493028D01*
X70534458Y-107483762D01*
X70306237Y-107255541D01*
X70296971Y-107245173D01*
X70095732Y-106992827D01*
X70087685Y-106981486D01*
X69915965Y-106708195D01*
X69909239Y-106696025D01*
X69769201Y-106405233D01*
X69763879Y-106392386D01*
X69657275Y-106087729D01*
X69653426Y-106074366D01*
X69581606Y-105759700D01*
X69579277Y-105745992D01*
X69551337Y-105498026D01*
X69550557Y-105484117D01*
X69559453Y-61716878D01*
X69560233Y-61703019D01*
X69579277Y-61534007D01*
X69581606Y-61520299D01*
X69653426Y-61205633D01*
X69657275Y-61192270D01*
X69763879Y-60887613D01*
X69769201Y-60874766D01*
X69909239Y-60583974D01*
X69915965Y-60571804D01*
X70087685Y-60298513D01*
X70095732Y-60287172D01*
X70296971Y-60034826D01*
X70306237Y-60024458D01*
X70534458Y-59796237D01*
X70544826Y-59786971D01*
X70797172Y-59585732D01*
X70808513Y-59577685D01*
X71081804Y-59405965D01*
X71093974Y-59399239D01*
X71384774Y-59259197D01*
X71397621Y-59253876D01*
X71465045Y-59230283D01*
X71534824Y-59226721D01*
X71595451Y-59261449D01*
G37*
M02*
