%TF.GenerationSoftware,KiCad,Pcbnew,9.0.5*%
%TF.CreationDate,2025-11-17T13:16:44+03:00*%
%TF.ProjectId,CamTracker,43616d54-7261-4636-9b65-722e6b696361,rev?*%
%TF.SameCoordinates,Original*%
%TF.FileFunction,Paste,Top*%
%TF.FilePolarity,Positive*%
%FSLAX46Y46*%
G04 Gerber Fmt 4.6, Leading zero omitted, Abs format (unit mm)*
G04 Created by KiCad (PCBNEW 9.0.5) date 2025-11-17 13:16:44*
%MOMM*%
%LPD*%
G01*
G04 APERTURE LIST*
G04 Aperture macros list*
%AMRoundRect*
0 Rectangle with rounded corners*
0 $1 Rounding radius*
0 $2 $3 $4 $5 $6 $7 $8 $9 X,Y pos of 4 corners*
0 Add a 4 corners polygon primitive as box body*
4,1,4,$2,$3,$4,$5,$6,$7,$8,$9,$2,$3,0*
0 Add four circle primitives for the rounded corners*
1,1,$1+$1,$2,$3*
1,1,$1+$1,$4,$5*
1,1,$1+$1,$6,$7*
1,1,$1+$1,$8,$9*
0 Add four rect primitives between the rounded corners*
20,1,$1+$1,$2,$3,$4,$5,0*
20,1,$1+$1,$4,$5,$6,$7,0*
20,1,$1+$1,$6,$7,$8,$9,0*
20,1,$1+$1,$8,$9,$2,$3,0*%
G04 Aperture macros list end*
%ADD10C,0.000000*%
%ADD11O,1.000000X2.100000*%
%ADD12O,1.000000X1.800000*%
%ADD13O,1.549400X0.990600*%
%ADD14R,0.700000X2.100000*%
%ADD15R,0.800000X1.140000*%
%ADD16R,1.300000X0.900000*%
%ADD17R,0.750000X1.800000*%
%ADD18R,0.600000X1.800000*%
%ADD19R,0.700000X0.600000*%
%ADD20R,1.450000X0.950000*%
%ADD21R,0.600000X0.620000*%
%ADD22R,0.508000X0.660400*%
%ADD23R,1.000000X0.600000*%
%ADD24R,0.950000X1.450000*%
%ADD25R,0.600000X0.350000*%
%ADD26R,0.500000X0.300000*%
%ADD27R,0.300000X0.500000*%
%ADD28R,0.620000X0.600000*%
%ADD29R,0.660400X0.508000*%
%ADD30R,0.650000X1.525000*%
%ADD31R,3.350000X2.710000*%
%ADD32R,0.600000X0.750000*%
%ADD33RoundRect,0.075000X0.075000X-0.175000X0.075000X0.175000X-0.075000X0.175000X-0.075000X-0.175000X0*%
%ADD34R,0.810000X2.820000*%
%ADD35R,1.125000X0.575000*%
%ADD36R,0.425000X1.500000*%
%ADD37R,1.300000X1.920000*%
%ADD38R,2.370000X2.430000*%
%ADD39R,2.400000X0.760000*%
%ADD40R,1.000000X0.580000*%
%ADD41R,0.600000X0.700000*%
%ADD42R,1.800000X1.400000*%
%ADD43R,1.400000X1.900000*%
%ADD44R,0.800000X2.000000*%
%ADD45R,3.439000X3.251000*%
%ADD46R,2.200000X3.100000*%
%ADD47R,0.230000X0.350000*%
%ADD48R,1.200000X0.600000*%
%ADD49R,1.425000X0.450000*%
%ADD50R,0.990600X1.041400*%
%ADD51R,1.041400X2.209800*%
%ADD52R,0.650000X0.750000*%
%ADD53R,0.500000X0.600000*%
%ADD54O,0.650000X2.200000*%
%ADD55O,2.200000X0.650000*%
%ADD56R,1.500000X1.500000*%
%ADD57R,0.750000X0.600000*%
%ADD58R,2.200000X2.150000*%
%ADD59R,2.692400X1.244600*%
%ADD60R,0.530000X0.400000*%
%ADD61R,1.041400X0.990600*%
%ADD62R,2.209800X1.041400*%
%ADD63R,0.600000X0.500000*%
%ADD64R,3.100000X2.200000*%
%ADD65C,0.800000*%
%ADD66R,0.940000X0.810000*%
G04 APERTURE END LIST*
D10*
%TO.C,U1*%
G36*
X136980000Y-81660000D02*
G01*
X135380000Y-81660000D01*
X135380000Y-80060000D01*
X136980000Y-80060000D01*
X136980000Y-81660000D01*
G37*
G36*
X136980000Y-83660000D02*
G01*
X135380000Y-83660000D01*
X135380000Y-82060000D01*
X136980000Y-82060000D01*
X136980000Y-83660000D01*
G37*
G36*
X136980000Y-87660000D02*
G01*
X135380000Y-87660000D01*
X135380000Y-86060000D01*
X136980000Y-86060000D01*
X136980000Y-87660000D01*
G37*
G36*
X136980000Y-89660000D02*
G01*
X135380000Y-89660000D01*
X135380000Y-88060000D01*
X136980000Y-88060000D01*
X136980000Y-89660000D01*
G37*
G36*
X138980000Y-81660000D02*
G01*
X137380000Y-81660000D01*
X137380000Y-80060000D01*
X138980000Y-80060000D01*
X138980000Y-81660000D01*
G37*
G36*
X138980000Y-83660000D02*
G01*
X137380000Y-83660000D01*
X137380000Y-82060000D01*
X138980000Y-82060000D01*
X138980000Y-83660000D01*
G37*
G36*
X138980000Y-87660000D02*
G01*
X137380000Y-87660000D01*
X137380000Y-86060000D01*
X138980000Y-86060000D01*
X138980000Y-87660000D01*
G37*
G36*
X138980000Y-89660000D02*
G01*
X137380000Y-89660000D01*
X137380000Y-88060000D01*
X138980000Y-88060000D01*
X138980000Y-89660000D01*
G37*
G36*
X142980000Y-81660000D02*
G01*
X141380000Y-81660000D01*
X141380000Y-80060000D01*
X142980000Y-80060000D01*
X142980000Y-81660000D01*
G37*
G36*
X142980000Y-83660000D02*
G01*
X141380000Y-83660000D01*
X141380000Y-82060000D01*
X142980000Y-82060000D01*
X142980000Y-83660000D01*
G37*
G36*
X142980000Y-87660000D02*
G01*
X141380000Y-87660000D01*
X141380000Y-86060000D01*
X142980000Y-86060000D01*
X142980000Y-87660000D01*
G37*
G36*
X142980000Y-89660000D02*
G01*
X141380000Y-89660000D01*
X141380000Y-88060000D01*
X142980000Y-88060000D01*
X142980000Y-89660000D01*
G37*
G36*
X144980000Y-81660000D02*
G01*
X143380000Y-81660000D01*
X143380000Y-80060000D01*
X144980000Y-80060000D01*
X144980000Y-81660000D01*
G37*
G36*
X144980000Y-83660000D02*
G01*
X143380000Y-83660000D01*
X143380000Y-82060000D01*
X144980000Y-82060000D01*
X144980000Y-83660000D01*
G37*
G36*
X144980000Y-87660000D02*
G01*
X143380000Y-87660000D01*
X143380000Y-86060000D01*
X144980000Y-86060000D01*
X144980000Y-87660000D01*
G37*
G36*
X144980000Y-89660000D02*
G01*
X143380000Y-89660000D01*
X143380000Y-88060000D01*
X144980000Y-88060000D01*
X144980000Y-89660000D01*
G37*
%TD*%
D11*
%TO.C,J6*%
X88710000Y-105635000D03*
X97350000Y-105635000D03*
D12*
X88710000Y-101095000D03*
D13*
X88989400Y-101603000D03*
X97071680Y-101603000D03*
D12*
X97350000Y-101085000D03*
%TD*%
D14*
%TO.C,J13*%
X193200000Y-95090000D03*
X193200000Y-107090000D03*
X180200000Y-107090000D03*
X180200000Y-95090000D03*
D15*
X189170000Y-93610000D03*
X183140000Y-93610000D03*
X185680000Y-93610000D03*
X188220000Y-93610000D03*
X181870000Y-93610000D03*
X184410000Y-93610000D03*
X186950000Y-93610000D03*
%TD*%
D16*
%TO.C,S1*%
X114440000Y-59785000D03*
X118140000Y-59785000D03*
D17*
X115065000Y-61735000D03*
D18*
X116290000Y-61735000D03*
D17*
X117515000Y-61735000D03*
%TD*%
D16*
%TO.C,S2*%
X108165000Y-59785000D03*
X111865000Y-59785000D03*
D17*
X108790000Y-61735000D03*
D18*
X110015000Y-61735000D03*
D17*
X111240000Y-61735000D03*
%TD*%
D16*
%TO.C,S3*%
X101940000Y-59785000D03*
X105640000Y-59785000D03*
D17*
X102565000Y-61735000D03*
D18*
X103790000Y-61735000D03*
D17*
X105015000Y-61735000D03*
%TD*%
D19*
%TO.C,Q3*%
X108420000Y-67925000D03*
X108420000Y-66025000D03*
X106420000Y-66975000D03*
%TD*%
D20*
%TO.C,R20*%
X116970000Y-79760000D03*
X116970000Y-81760000D03*
%TD*%
D21*
%TO.C,C99*%
X95970000Y-61370000D03*
X96890000Y-61370000D03*
%TD*%
D22*
%TO.C,R62*%
X190570000Y-64250000D03*
X190570000Y-63132400D03*
%TD*%
%TO.C,R69*%
X172610000Y-89351200D03*
X172610000Y-90468800D03*
%TD*%
D23*
%TO.C,U10*%
X113980000Y-67900000D03*
X113980000Y-68850000D03*
X113980000Y-69800000D03*
X116180000Y-69800000D03*
X116180000Y-67900000D03*
%TD*%
D21*
%TO.C,C55*%
X190510000Y-60270000D03*
X191430000Y-60270000D03*
%TD*%
%TO.C,C106*%
X95330000Y-66530000D03*
X94410000Y-66530000D03*
%TD*%
D24*
%TO.C,R56*%
X85440000Y-69660000D03*
X87440000Y-69660000D03*
%TD*%
D25*
%TO.C,D19*%
X117580000Y-63725000D03*
X117580000Y-64375000D03*
%TD*%
D26*
%TO.C,FL3*%
X74613000Y-72365000D03*
X74613000Y-72915000D03*
X75863000Y-72915000D03*
X75863000Y-72365000D03*
D27*
X75238000Y-72150000D03*
X75238000Y-73130000D03*
%TD*%
D22*
%TO.C,R76*%
X173860000Y-89351200D03*
X173860000Y-90468800D03*
%TD*%
D28*
%TO.C,C108*%
X90350000Y-61140000D03*
X90350000Y-62060000D03*
%TD*%
D29*
%TO.C,R2*%
X116568800Y-92930000D03*
X115451200Y-92930000D03*
%TD*%
D28*
%TO.C,C109*%
X89200000Y-66730000D03*
X89200000Y-65810000D03*
%TD*%
D29*
%TO.C,R40*%
X169588800Y-63998800D03*
X168471200Y-63998800D03*
%TD*%
D22*
%TO.C,R44*%
X166720000Y-72567600D03*
X166720000Y-71450000D03*
%TD*%
D30*
%TO.C,U2*%
X85075000Y-89398000D03*
X86345000Y-89398000D03*
X87615000Y-89398000D03*
X88885000Y-89398000D03*
X88885000Y-84022000D03*
X87615000Y-84022000D03*
X86345000Y-84022000D03*
X85075000Y-84022000D03*
D31*
X86980000Y-86710000D03*
%TD*%
D21*
%TO.C,C59*%
X190510000Y-61440000D03*
X191430000Y-61440000D03*
%TD*%
D28*
%TO.C,C81*%
X112090000Y-87370000D03*
X112090000Y-86450000D03*
%TD*%
D22*
%TO.C,R24*%
X162390000Y-67048800D03*
X162390000Y-65931200D03*
%TD*%
D32*
%TO.C,FB1*%
X173890000Y-77360000D03*
X173890000Y-76260000D03*
%TD*%
D26*
%TO.C,FL4*%
X179150500Y-65165000D03*
X179150500Y-65715000D03*
X180400500Y-65715000D03*
X180400500Y-65165000D03*
D27*
X179775500Y-64950000D03*
X179775500Y-65930000D03*
%TD*%
D33*
%TO.C,D7*%
X109020000Y-94860000D03*
X109020000Y-93860000D03*
%TD*%
D34*
%TO.C,C18*%
X97430000Y-86570000D03*
X100630000Y-86570000D03*
%TD*%
D35*
%TO.C,LED3*%
X105895600Y-82290000D03*
X105895600Y-83215000D03*
D36*
X104770600Y-82752500D03*
%TD*%
D25*
%TO.C,D20*%
X111210000Y-63720000D03*
X111210000Y-64370000D03*
%TD*%
D24*
%TO.C,R87*%
X113810000Y-80950000D03*
X111810000Y-80950000D03*
%TD*%
D29*
%TO.C,R29*%
X102551200Y-66920000D03*
X103668800Y-66920000D03*
%TD*%
D21*
%TO.C,C4*%
X92030000Y-97620000D03*
X92950000Y-97620000D03*
%TD*%
%TO.C,C7*%
X116690000Y-90080000D03*
X115770000Y-90080000D03*
%TD*%
D37*
%TO.C,C2*%
X91550000Y-102690000D03*
X94170000Y-102690000D03*
%TD*%
D28*
%TO.C,C104*%
X173830000Y-78640000D03*
X173830000Y-79560000D03*
%TD*%
%TO.C,C13*%
X115680000Y-101210000D03*
X115680000Y-100290000D03*
%TD*%
D38*
%TO.C,C16*%
X107880000Y-100780000D03*
X101640000Y-100780000D03*
%TD*%
D28*
%TO.C,C41*%
X117700000Y-97300000D03*
X117700000Y-96380000D03*
%TD*%
D22*
%TO.C,R71*%
X167610000Y-89351200D03*
X167610000Y-90468800D03*
%TD*%
D28*
%TO.C,C100*%
X166580000Y-76940000D03*
X166580000Y-76020000D03*
%TD*%
D22*
%TO.C,R34*%
X109570000Y-67888800D03*
X109570000Y-66771200D03*
%TD*%
D29*
%TO.C,R35*%
X112068800Y-67930000D03*
X110951200Y-67930000D03*
%TD*%
D21*
%TO.C,C65*%
X187850000Y-88550000D03*
X188770000Y-88550000D03*
%TD*%
D26*
%TO.C,FL2*%
X74613000Y-68565000D03*
X74613000Y-69115000D03*
X75863000Y-69115000D03*
X75863000Y-68565000D03*
D27*
X75238000Y-68350000D03*
X75238000Y-69330000D03*
%TD*%
D19*
%TO.C,Q6*%
X167960000Y-71083800D03*
X167960000Y-72983800D03*
X169960000Y-72033800D03*
%TD*%
D28*
%TO.C,C40*%
X116600000Y-97270000D03*
X116600000Y-96350000D03*
%TD*%
D39*
%TO.C,J9*%
X183750000Y-64725000D03*
X183750000Y-65995000D03*
X183750000Y-67265000D03*
X183750000Y-68535000D03*
X183750000Y-69805000D03*
X183750000Y-71075000D03*
X183750000Y-72345000D03*
X183750000Y-73615000D03*
X187650000Y-73615000D03*
X187650000Y-72345000D03*
X187650000Y-71075000D03*
X187650000Y-69805000D03*
X187650000Y-68535000D03*
X187650000Y-67265000D03*
X187650000Y-65995000D03*
X187650000Y-64725000D03*
%TD*%
D22*
%TO.C,R43*%
X167240000Y-67147600D03*
X167240000Y-66030000D03*
%TD*%
D21*
%TO.C,C98*%
X95950000Y-60280000D03*
X96870000Y-60280000D03*
%TD*%
D40*
%TO.C,D3*%
X77926178Y-96333316D03*
X77926178Y-97453316D03*
%TD*%
D41*
%TO.C,L6*%
X189330000Y-61500000D03*
X189330000Y-60300000D03*
%TD*%
D29*
%TO.C,R103*%
X99008800Y-66550000D03*
X97891200Y-66550000D03*
%TD*%
D28*
%TO.C,C61*%
X166030000Y-84095000D03*
X166030000Y-83175000D03*
%TD*%
D22*
%TO.C,R73*%
X162610000Y-89351200D03*
X162610000Y-90468800D03*
%TD*%
D42*
%TO.C,J14*%
X170925000Y-93032500D03*
X165225000Y-93032500D03*
D43*
X176775000Y-107082500D03*
X163625000Y-106082500D03*
D44*
X172115000Y-103582500D03*
X171015000Y-103182500D03*
X169915000Y-103582500D03*
X168815000Y-103782500D03*
X167715000Y-103582500D03*
X166615000Y-103782500D03*
X165515000Y-103582500D03*
X164415000Y-103582500D03*
%TD*%
D24*
%TO.C,R55*%
X85440000Y-67570000D03*
X87440000Y-67570000D03*
%TD*%
D45*
%TO.C,L1*%
X85997000Y-76190000D03*
X94623000Y-76190000D03*
%TD*%
D22*
%TO.C,R79*%
X165110000Y-89351200D03*
X165110000Y-90468800D03*
%TD*%
D29*
%TO.C,R41*%
X168968800Y-69698800D03*
X167851200Y-69698800D03*
%TD*%
D46*
%TO.C,D4*%
X89780000Y-93860000D03*
X82780000Y-93860000D03*
%TD*%
D21*
%TO.C,C101*%
X166660000Y-78040000D03*
X167580000Y-78040000D03*
%TD*%
D22*
%TO.C,R5*%
X90360000Y-86021200D03*
X90360000Y-87138800D03*
%TD*%
D28*
%TO.C,C10*%
X117820000Y-101190000D03*
X117820000Y-100270000D03*
%TD*%
D22*
%TO.C,R36*%
X116300000Y-64738800D03*
X116300000Y-63621200D03*
%TD*%
D26*
%TO.C,FL1*%
X74613000Y-64765000D03*
X74613000Y-65315000D03*
X75863000Y-65315000D03*
X75863000Y-64765000D03*
D27*
X75238000Y-64550000D03*
X75238000Y-65530000D03*
%TD*%
D47*
%TO.C,D11*%
X131130000Y-61471200D03*
X131510000Y-61471200D03*
D25*
X131320000Y-60821200D03*
%TD*%
D48*
%TO.C,D24*%
X183440000Y-88460000D03*
X183440000Y-89410000D03*
X183440000Y-90360000D03*
X185940000Y-90360000D03*
X185940000Y-89410000D03*
X185940000Y-88460000D03*
%TD*%
D22*
%TO.C,R3*%
X90400000Y-89668800D03*
X90400000Y-88551200D03*
%TD*%
%TO.C,R42*%
X172560000Y-67216400D03*
X172560000Y-66098800D03*
%TD*%
D28*
%TO.C,C75*%
X109420000Y-80420000D03*
X109420000Y-81340000D03*
%TD*%
%TO.C,C107*%
X91660000Y-64490000D03*
X91660000Y-63570000D03*
%TD*%
%TO.C,C73*%
X110500000Y-80420000D03*
X110500000Y-81340000D03*
%TD*%
D21*
%TO.C,C57*%
X75080000Y-62240000D03*
X74160000Y-62240000D03*
%TD*%
D29*
%TO.C,R75*%
X180911200Y-85810000D03*
X182028800Y-85810000D03*
%TD*%
%TO.C,R90*%
X113441200Y-87370000D03*
X114558800Y-87370000D03*
%TD*%
%TO.C,R61*%
X89001200Y-68880000D03*
X90118800Y-68880000D03*
%TD*%
D25*
%TO.C,D28*%
X167800000Y-86740000D03*
X167800000Y-86090000D03*
%TD*%
D49*
%TO.C,U13*%
X98962000Y-64965000D03*
X98962000Y-64315000D03*
X98962000Y-63665000D03*
X98962000Y-63015000D03*
X94538000Y-63015000D03*
X94538000Y-63665000D03*
X94538000Y-64315000D03*
X94538000Y-64965000D03*
%TD*%
D20*
%TO.C,R58*%
X192810000Y-67730000D03*
X192810000Y-65730000D03*
%TD*%
D28*
%TO.C,C6*%
X83640000Y-85700000D03*
X83640000Y-84780000D03*
%TD*%
D24*
%TO.C,R31*%
X113360000Y-72240000D03*
X111360000Y-72240000D03*
%TD*%
D22*
%TO.C,R45*%
X171080000Y-63680000D03*
X171080000Y-64797600D03*
%TD*%
D28*
%TO.C,C103*%
X167580000Y-76960000D03*
X167580000Y-76040000D03*
%TD*%
D22*
%TO.C,R11*%
X91660000Y-83481200D03*
X91660000Y-84598800D03*
%TD*%
D50*
%TO.C,J15*%
X145220000Y-62439601D03*
D51*
X143744999Y-60914600D03*
X146695001Y-60914600D03*
%TD*%
D22*
%TO.C,R49*%
X176640000Y-77631200D03*
X176640000Y-78748800D03*
%TD*%
D21*
%TO.C,C9*%
X87530000Y-82550000D03*
X86610000Y-82550000D03*
%TD*%
D28*
%TO.C,C37*%
X116760000Y-101170000D03*
X116760000Y-100250000D03*
%TD*%
D50*
%TO.C,J16*%
X155230000Y-62439601D03*
D51*
X153754999Y-60914600D03*
X156705001Y-60914600D03*
%TD*%
D41*
%TO.C,Q2*%
X98835000Y-67930000D03*
X96935000Y-67930000D03*
X97885000Y-69930000D03*
%TD*%
%TO.C,L4*%
X76130000Y-61020000D03*
X76130000Y-62220000D03*
%TD*%
D20*
%TO.C,R57*%
X190540000Y-67730000D03*
X190540000Y-65730000D03*
%TD*%
D29*
%TO.C,R54*%
X176652400Y-76070000D03*
X177770000Y-76070000D03*
%TD*%
D37*
%TO.C,C1*%
X91550000Y-100270000D03*
X94170000Y-100270000D03*
%TD*%
D21*
%TO.C,C63*%
X179200000Y-89963333D03*
X180120000Y-89963333D03*
%TD*%
D29*
%TO.C,R101*%
X99268800Y-61430000D03*
X98151200Y-61430000D03*
%TD*%
%TO.C,R66*%
X180218800Y-91010000D03*
X179101200Y-91010000D03*
%TD*%
D52*
%TO.C,L8*%
X109420000Y-78450000D03*
X109420000Y-77350000D03*
%TD*%
D29*
%TO.C,R100*%
X99268800Y-60200000D03*
X98151200Y-60200000D03*
%TD*%
D53*
%TO.C,LED2*%
X94115000Y-70040000D03*
X93215000Y-70040000D03*
%TD*%
D21*
%TO.C,C5*%
X116670000Y-91220000D03*
X115750000Y-91220000D03*
%TD*%
D25*
%TO.C,D21*%
X105050000Y-63750000D03*
X105050000Y-64400000D03*
%TD*%
D40*
%TO.C,D12*%
X113890000Y-97160000D03*
X113890000Y-96040000D03*
%TD*%
D21*
%TO.C,C12*%
X114000000Y-84510000D03*
X113080000Y-84510000D03*
%TD*%
D28*
%TO.C,C105*%
X92720000Y-63580000D03*
X92720000Y-64500000D03*
%TD*%
D25*
%TO.C,D26*%
X172560000Y-86740000D03*
X172560000Y-86090000D03*
%TD*%
D54*
%TO.C,U1*%
X122180000Y-105010000D03*
X123180000Y-105010000D03*
X124180000Y-105010000D03*
X125180000Y-105010000D03*
X126180000Y-105010000D03*
X127180000Y-105010000D03*
X128180000Y-105010000D03*
X129180000Y-105010000D03*
X130180000Y-105010000D03*
X131180000Y-105010000D03*
X132180000Y-105010000D03*
X133180000Y-105010000D03*
X134180000Y-105010000D03*
X135180000Y-105010000D03*
X136180000Y-105010000D03*
X137180000Y-105010000D03*
X138180000Y-105010000D03*
X139180000Y-105010000D03*
X140180000Y-105010000D03*
X141180000Y-105010000D03*
X142180000Y-105010000D03*
X143180000Y-105010000D03*
X144180000Y-105010000D03*
X145180000Y-105010000D03*
X146180000Y-105010000D03*
X147180000Y-105010000D03*
X148180000Y-105010000D03*
X149180000Y-105010000D03*
X150180000Y-105010000D03*
X151180000Y-105010000D03*
X152180000Y-105010000D03*
X153180000Y-105010000D03*
X154180000Y-105010000D03*
X155180000Y-105010000D03*
X156180000Y-105010000D03*
X157180000Y-105010000D03*
X158180000Y-105010000D03*
D55*
X160330000Y-102360000D03*
X160330000Y-101360000D03*
X160330000Y-100360000D03*
X160330000Y-99360000D03*
X160330000Y-98360000D03*
X160330000Y-97360000D03*
X160330000Y-96360000D03*
X160330000Y-95360000D03*
X160330000Y-94360000D03*
X160330000Y-93360000D03*
X160330000Y-92360000D03*
X160330000Y-91360000D03*
X160330000Y-90360000D03*
X160330000Y-89360000D03*
X160330000Y-88360000D03*
X160330000Y-87360000D03*
X160330000Y-86360000D03*
X160330000Y-85360000D03*
X160330000Y-84360000D03*
X160330000Y-83360000D03*
X160330000Y-82360000D03*
X160330000Y-81360000D03*
X160330000Y-80360000D03*
X160330000Y-79360000D03*
X160330000Y-78360000D03*
X160330000Y-77360000D03*
X160330000Y-76360000D03*
X160330000Y-75360000D03*
X160330000Y-74360000D03*
X160330000Y-73360000D03*
X160330000Y-72360000D03*
X160330000Y-71360000D03*
X160330000Y-70360000D03*
X160330000Y-69360000D03*
X160330000Y-68360000D03*
X160330000Y-67360000D03*
D54*
X158180000Y-64710000D03*
X157180000Y-64710000D03*
X156180000Y-64710000D03*
X155180000Y-64710000D03*
X154180000Y-64710000D03*
X153180000Y-64710000D03*
X152180000Y-64710000D03*
X151180000Y-64710000D03*
X150180000Y-64710000D03*
X149180000Y-64710000D03*
X148180000Y-64710000D03*
X147180000Y-64710000D03*
X146180000Y-64710000D03*
X145180000Y-64710000D03*
X144180000Y-64710000D03*
X143180000Y-64710000D03*
X142180000Y-64710000D03*
X141180000Y-64710000D03*
X140180000Y-64710000D03*
X139180000Y-64710000D03*
X138180000Y-64710000D03*
X137180000Y-64710000D03*
X136180000Y-64710000D03*
X135180000Y-64710000D03*
X134180000Y-64710000D03*
X133180000Y-64710000D03*
X132180000Y-64710000D03*
X131180000Y-64710000D03*
X130180000Y-64710000D03*
X129180000Y-64710000D03*
X128180000Y-64710000D03*
X127180000Y-64710000D03*
X126180000Y-64710000D03*
X125180000Y-64710000D03*
X124180000Y-64710000D03*
X123180000Y-64710000D03*
X122180000Y-64710000D03*
D55*
X120030000Y-67360000D03*
X120030000Y-68360000D03*
X120030000Y-69360000D03*
X120030000Y-70360000D03*
X120030000Y-71360000D03*
X120030000Y-72360000D03*
X120030000Y-73360000D03*
X120030000Y-74360000D03*
X120030000Y-75360000D03*
X120030000Y-76360000D03*
X120030000Y-77360000D03*
X120030000Y-78360000D03*
X120030000Y-79360000D03*
X120030000Y-80360000D03*
X120030000Y-81360000D03*
X120030000Y-82360000D03*
X120030000Y-83360000D03*
X120030000Y-84360000D03*
X120030000Y-85360000D03*
X120030000Y-86360000D03*
X120030000Y-87360000D03*
X120030000Y-88360000D03*
X120030000Y-89360000D03*
X120030000Y-90360000D03*
X120030000Y-91360000D03*
X120030000Y-92360000D03*
X120030000Y-93360000D03*
X120030000Y-94360000D03*
X120030000Y-95360000D03*
X120030000Y-96360000D03*
X120030000Y-97360000D03*
X120030000Y-98360000D03*
X120030000Y-99360000D03*
X120030000Y-100360000D03*
X120030000Y-101360000D03*
X120030000Y-102360000D03*
D56*
X126680000Y-101360000D03*
X129680000Y-101360000D03*
X132680000Y-101360000D03*
X135680000Y-101360000D03*
X138680000Y-101360000D03*
X141680000Y-101360000D03*
X144680000Y-101360000D03*
X147680000Y-101360000D03*
X150680000Y-101360000D03*
X153680000Y-101360000D03*
X156680000Y-98360000D03*
X156680000Y-95360000D03*
X156680000Y-92360000D03*
X156680000Y-89360000D03*
X156680000Y-86360000D03*
X156680000Y-83360000D03*
X156680000Y-80360000D03*
X156680000Y-77360000D03*
X156680000Y-74360000D03*
X156680000Y-71360000D03*
X153680000Y-68360000D03*
X150680000Y-68360000D03*
X147680000Y-68360000D03*
X144680000Y-68360000D03*
X141680000Y-68360000D03*
X138680000Y-68360000D03*
X135680000Y-68360000D03*
X132680000Y-68360000D03*
X129680000Y-68360000D03*
X126680000Y-68360000D03*
X123680000Y-71360000D03*
X123680000Y-74360000D03*
X123680000Y-77360000D03*
X123680000Y-80360000D03*
X123680000Y-83360000D03*
X123680000Y-86360000D03*
X123680000Y-89360000D03*
X123680000Y-92360000D03*
X123680000Y-95360000D03*
X123680000Y-98360000D03*
X126680000Y-98360000D03*
X129680000Y-98360000D03*
X132680000Y-98360000D03*
X135680000Y-98360000D03*
X138680000Y-98360000D03*
X141680000Y-98360000D03*
X144680000Y-98360000D03*
X147680000Y-98360000D03*
X150680000Y-98360000D03*
X153680000Y-98360000D03*
X153680000Y-95360000D03*
X153680000Y-92360000D03*
X153680000Y-89360000D03*
X153680000Y-86360000D03*
X153680000Y-83360000D03*
X153680000Y-80360000D03*
X153680000Y-77360000D03*
X153680000Y-74360000D03*
X153680000Y-71360000D03*
X150680000Y-71360000D03*
X147680000Y-71360000D03*
X144680000Y-71360000D03*
X141680000Y-71360000D03*
X138680000Y-71360000D03*
X135680000Y-71360000D03*
X132680000Y-71360000D03*
X129680000Y-71360000D03*
X126680000Y-71360000D03*
X126680000Y-74360000D03*
X126680000Y-77360000D03*
X126680000Y-80360000D03*
X126680000Y-83360000D03*
X126680000Y-86360000D03*
X126680000Y-89360000D03*
X126680000Y-92360000D03*
X126680000Y-95360000D03*
X129680000Y-95360000D03*
X132680000Y-95360000D03*
X135680000Y-95360000D03*
X138680000Y-95360000D03*
X141680000Y-95360000D03*
X144680000Y-95360000D03*
X147680000Y-95360000D03*
X150680000Y-95360000D03*
X150680000Y-92360000D03*
X150680000Y-89360000D03*
X150680000Y-86360000D03*
X150680000Y-83360000D03*
X150680000Y-80360000D03*
X150680000Y-77360000D03*
X150680000Y-74360000D03*
X147680000Y-74360000D03*
X144680000Y-74360000D03*
X141680000Y-74360000D03*
X138680000Y-74360000D03*
X135680000Y-74360000D03*
X132680000Y-74360000D03*
X129680000Y-74360000D03*
X129680000Y-77360000D03*
X129680000Y-80360000D03*
X129680000Y-83360000D03*
X129680000Y-86360000D03*
X129680000Y-89360000D03*
X129680000Y-92360000D03*
X132680000Y-92360000D03*
X135680000Y-92360000D03*
X138680000Y-92360000D03*
X141680000Y-92360000D03*
X144680000Y-92360000D03*
X147680000Y-92360000D03*
X147680000Y-89360000D03*
X147680000Y-86360000D03*
X147680000Y-83360000D03*
X147680000Y-80360000D03*
X147680000Y-77360000D03*
X144680000Y-77360000D03*
X141680000Y-77360000D03*
X138680000Y-77360000D03*
X135680000Y-77360000D03*
X132680000Y-77360000D03*
X132680000Y-80360000D03*
X132680000Y-83360000D03*
X132680000Y-86360000D03*
X132680000Y-89360000D03*
%TD*%
D28*
%TO.C,C110*%
X89210000Y-61130000D03*
X89210000Y-62050000D03*
%TD*%
D22*
%TO.C,R46*%
X170440000Y-69581200D03*
X170440000Y-70698800D03*
%TD*%
%TO.C,R64*%
X167330000Y-83086200D03*
X167330000Y-84203800D03*
%TD*%
D29*
%TO.C,R65*%
X187561200Y-90730000D03*
X188678800Y-90730000D03*
%TD*%
D22*
%TO.C,R102*%
X167490000Y-80261200D03*
X167490000Y-81378800D03*
%TD*%
D29*
%TO.C,R1*%
X116537600Y-94180000D03*
X115420000Y-94180000D03*
%TD*%
D22*
%TO.C,R68*%
X175110000Y-89351200D03*
X175110000Y-90468800D03*
%TD*%
D21*
%TO.C,C80*%
X111630000Y-77360000D03*
X110710000Y-77360000D03*
%TD*%
D22*
%TO.C,R77*%
X171360000Y-89351200D03*
X171360000Y-90468800D03*
%TD*%
D29*
%TO.C,R39*%
X173851200Y-64517600D03*
X174968800Y-64517600D03*
%TD*%
D57*
%TO.C,FB3*%
X90360000Y-63300000D03*
X89260000Y-63300000D03*
%TD*%
D29*
%TO.C,R52*%
X179608800Y-79770000D03*
X178491200Y-79770000D03*
%TD*%
%TO.C,R89*%
X113911200Y-77340000D03*
X115028800Y-77340000D03*
%TD*%
D34*
%TO.C,C19*%
X97460000Y-76460000D03*
X100660000Y-76460000D03*
%TD*%
D58*
%TO.C,D2*%
X78090000Y-89820000D03*
X73690000Y-89820000D03*
%TD*%
D22*
%TO.C,R78*%
X168860000Y-89351200D03*
X168860000Y-90468800D03*
%TD*%
%TO.C,R4*%
X90317000Y-83481200D03*
X90317000Y-84598800D03*
%TD*%
D37*
%TO.C,C3*%
X91570000Y-105070000D03*
X94190000Y-105070000D03*
%TD*%
D22*
%TO.C,R72*%
X166360000Y-89351200D03*
X166360000Y-90468800D03*
%TD*%
D19*
%TO.C,Q4*%
X168520000Y-65307600D03*
X168520000Y-67207600D03*
X170520000Y-66257600D03*
%TD*%
D59*
%TO.C,C15*%
X117720000Y-104080000D03*
X117720000Y-107051800D03*
%TD*%
D60*
%TO.C,D5*%
X114000000Y-83190000D03*
X112400000Y-83190000D03*
%TD*%
D19*
%TO.C,Q5*%
X173800000Y-65797600D03*
X173800000Y-67697600D03*
X175800000Y-66747600D03*
%TD*%
D29*
%TO.C,R67*%
X180218800Y-87870000D03*
X179101200Y-87870000D03*
%TD*%
D37*
%TO.C,C23*%
X79590000Y-106670000D03*
X76970000Y-106670000D03*
%TD*%
D22*
%TO.C,R23*%
X140860000Y-61828800D03*
X140860000Y-60711200D03*
%TD*%
%TO.C,R37*%
X109970000Y-64738800D03*
X109970000Y-63621200D03*
%TD*%
D29*
%TO.C,R59*%
X89001200Y-70100000D03*
X90118800Y-70100000D03*
%TD*%
D21*
%TO.C,C52*%
X116470000Y-66530000D03*
X115550000Y-66530000D03*
%TD*%
D28*
%TO.C,C77*%
X116290000Y-77360000D03*
X116290000Y-76440000D03*
%TD*%
D39*
%TO.C,J8*%
X77990000Y-64642500D03*
X77990000Y-65912500D03*
X77990000Y-67182500D03*
X77990000Y-68452500D03*
X77990000Y-69722500D03*
X77990000Y-70992500D03*
X77990000Y-72262500D03*
X77990000Y-73532500D03*
X81890000Y-73532500D03*
X81890000Y-72262500D03*
X81890000Y-70992500D03*
X81890000Y-69722500D03*
X81890000Y-68452500D03*
X81890000Y-67182500D03*
X81890000Y-65912500D03*
X81890000Y-64642500D03*
%TD*%
D29*
%TO.C,R74*%
X184410000Y-86940000D03*
X183292400Y-86940000D03*
%TD*%
D28*
%TO.C,C78*%
X115950000Y-87360000D03*
X115950000Y-86440000D03*
%TD*%
D21*
%TO.C,C64*%
X179200000Y-88916667D03*
X180120000Y-88916667D03*
%TD*%
D34*
%TO.C,C17*%
X97460000Y-83200000D03*
X100660000Y-83200000D03*
%TD*%
D57*
%TO.C,FB2*%
X90370000Y-64700000D03*
X89270000Y-64700000D03*
%TD*%
D21*
%TO.C,C8*%
X116690000Y-88960000D03*
X115770000Y-88960000D03*
%TD*%
D40*
%TO.C,D6*%
X110360000Y-94930000D03*
X110360000Y-93810000D03*
%TD*%
D41*
%TO.C,Q9*%
X178020000Y-78590000D03*
X179920000Y-78590000D03*
X178970000Y-76590000D03*
%TD*%
D26*
%TO.C,FL5*%
X179150500Y-68835000D03*
X179150500Y-69385000D03*
X180400500Y-69385000D03*
X180400500Y-68835000D03*
D27*
X179775500Y-68620000D03*
X179775500Y-69600000D03*
%TD*%
D24*
%TO.C,R6*%
X115180000Y-83650000D03*
X117180000Y-83650000D03*
%TD*%
D22*
%TO.C,R80*%
X163860000Y-89351200D03*
X163860000Y-90468800D03*
%TD*%
D25*
%TO.C,D22*%
X164770000Y-83425000D03*
X164770000Y-84075000D03*
%TD*%
%TO.C,D29*%
X165170000Y-86740000D03*
X165170000Y-86090000D03*
%TD*%
D22*
%TO.C,R32*%
X97370000Y-72418800D03*
X97370000Y-71301200D03*
%TD*%
D61*
%TO.C,J17*%
X107459601Y-77350000D03*
D62*
X105934600Y-78825001D03*
X105934600Y-75874999D03*
%TD*%
D22*
%TO.C,R30*%
X102530000Y-63621200D03*
X102530000Y-64738800D03*
%TD*%
D63*
%TO.C,LED1*%
X91580000Y-86830000D03*
X91580000Y-85930000D03*
%TD*%
D21*
%TO.C,C102*%
X166660000Y-79080000D03*
X167580000Y-79080000D03*
%TD*%
D22*
%TO.C,R70*%
X170110000Y-89351200D03*
X170110000Y-90468800D03*
%TD*%
D25*
%TO.C,D9*%
X162390000Y-68991200D03*
X162390000Y-69641200D03*
%TD*%
D22*
%TO.C,R38*%
X103780000Y-64818800D03*
X103780000Y-63701200D03*
%TD*%
D64*
%TO.C,D8*%
X84500000Y-99440000D03*
X84500000Y-106440000D03*
%TD*%
D21*
%TO.C,C24*%
X77620000Y-104880000D03*
X76700000Y-104880000D03*
%TD*%
D34*
%TO.C,C20*%
X97460000Y-79820000D03*
X100660000Y-79820000D03*
%TD*%
D19*
%TO.C,Q1*%
X107670000Y-71110000D03*
X107670000Y-73010000D03*
X109670000Y-72060000D03*
%TD*%
D25*
%TO.C,D30*%
X162540000Y-86740000D03*
X162540000Y-86090000D03*
%TD*%
D28*
%TO.C,C79*%
X112700000Y-77360000D03*
X112700000Y-76440000D03*
%TD*%
D21*
%TO.C,C62*%
X188810000Y-89610000D03*
X187890000Y-89610000D03*
%TD*%
D25*
%TO.C,D27*%
X170040000Y-86750000D03*
X170040000Y-86100000D03*
%TD*%
D28*
%TO.C,C51*%
X112190000Y-69030000D03*
X112190000Y-69950000D03*
%TD*%
D21*
%TO.C,C53*%
X75080000Y-61150000D03*
X74160000Y-61150000D03*
%TD*%
D26*
%TO.C,FL6*%
X179150500Y-72665000D03*
X179150500Y-73215000D03*
X180400500Y-73215000D03*
X180400500Y-72665000D03*
D27*
X179775500Y-72450000D03*
X179775500Y-73430000D03*
%TD*%
D29*
%TO.C,R33*%
X107828800Y-69240000D03*
X106711200Y-69240000D03*
%TD*%
D61*
%TO.C,J18*%
X110260000Y-87380000D03*
D62*
X108734999Y-88855001D03*
X108734999Y-85904999D03*
%TD*%
D29*
%TO.C,R63*%
X165888800Y-82025000D03*
X164771200Y-82025000D03*
%TD*%
D65*
%TO.C,MK1*%
X171540000Y-77310000D03*
X171540000Y-79770000D03*
X169840000Y-79770000D03*
X169840000Y-77310000D03*
%TD*%
D22*
%TO.C,R60*%
X192810000Y-64228800D03*
X192810000Y-63111200D03*
%TD*%
D25*
%TO.C,D25*%
X175130000Y-86710000D03*
X175130000Y-86060000D03*
%TD*%
D66*
%TO.C,C42*%
X115420000Y-97240000D03*
X115420000Y-95900000D03*
%TD*%
M02*
