%TF.GenerationSoftware,KiCad,Pcbnew,9.0.6*%
%TF.CreationDate,2025-12-22T09:21:18+03:00*%
%TF.ProjectId,CamTracker,43616d54-7261-4636-9b65-722e6b696361,rev?*%
%TF.SameCoordinates,Original*%
%TF.FileFunction,Plated,1,6,PTH,Mixed*%
%TF.FilePolarity,Positive*%
%FSLAX46Y46*%
G04 Gerber Fmt 4.6, Leading zero omitted, Abs format (unit mm)*
G04 Created by KiCad (PCBNEW 9.0.6) date 2025-12-22 09:21:18*
%MOMM*%
%LPD*%
G01*
G04 APERTURE LIST*
%TA.AperFunction,ViaDrill*%
%ADD10C,0.150000*%
%TD*%
%TA.AperFunction,ViaDrill*%
%ADD11C,0.200000*%
%TD*%
%TA.AperFunction,ViaDrill*%
%ADD12C,0.250000*%
%TD*%
%TA.AperFunction,ViaDrill*%
%ADD13C,0.300000*%
%TD*%
%TA.AperFunction,ViaDrill*%
%ADD14C,0.400000*%
%TD*%
%TA.AperFunction,ComponentDrill*%
%ADD15C,0.550000*%
%TD*%
%TA.AperFunction,ViaDrill*%
%ADD16C,0.600000*%
%TD*%
G04 aperture for slot hole*
%TA.AperFunction,ComponentDrill*%
%ADD17C,0.600000*%
%TD*%
%TA.AperFunction,ComponentDrill*%
%ADD18C,1.150000*%
%TD*%
%TA.AperFunction,ComponentDrill*%
%ADD19C,1.886800*%
%TD*%
%TA.AperFunction,ComponentDrill*%
%ADD20C,2.950000*%
%TD*%
%TA.AperFunction,ComponentDrill*%
%ADD21C,4.220000*%
%TD*%
G04 APERTURE END LIST*
D10*
X72079545Y-76190000D03*
X72454545Y-75630000D03*
X73136069Y-72443603D03*
X73360000Y-64970000D03*
X73480000Y-71570000D03*
X73800000Y-72430000D03*
X73890000Y-64765000D03*
X74275000Y-67380000D03*
X74570000Y-74380000D03*
X74825000Y-67380000D03*
X75960000Y-67320000D03*
X81250000Y-61390000D03*
X81800000Y-72280000D03*
X81820000Y-73590000D03*
X86520000Y-69870000D03*
X87050000Y-68315000D03*
X87060000Y-65540000D03*
X92575002Y-99727520D03*
X93075000Y-94644998D03*
X93144998Y-102530000D03*
X93625000Y-94644998D03*
X94580000Y-98570000D03*
X94676621Y-97983379D03*
X95140000Y-71620000D03*
X97160000Y-98080000D03*
X97310000Y-96950000D03*
X98850000Y-105620000D03*
X100920000Y-87410000D03*
X101120000Y-65000000D03*
X104855000Y-97405476D03*
X104890000Y-65375000D03*
X105150000Y-66410000D03*
X105405000Y-97405476D03*
X110790000Y-65930000D03*
X117360000Y-94180000D03*
X118090000Y-80014700D03*
X121670000Y-84430000D03*
X121780000Y-69260000D03*
X122070000Y-100210000D03*
X122140000Y-80690000D03*
X122260000Y-82820000D03*
X123120000Y-100720000D03*
X123160000Y-101450000D03*
X123200000Y-66200000D03*
X124170000Y-106650000D03*
X124190000Y-66190000D03*
X124850000Y-95920000D03*
X127180000Y-66250000D03*
X128560000Y-80370000D03*
X129210000Y-66350000D03*
X130090000Y-107200000D03*
X130340000Y-66760000D03*
X131060000Y-75970000D03*
X131140000Y-94710000D03*
X131160000Y-93660000D03*
X131160000Y-107310000D03*
X132510451Y-96535453D03*
X132996316Y-96828820D03*
X133180000Y-66340000D03*
X133180000Y-105810000D03*
X133740000Y-90270000D03*
X133800000Y-88320000D03*
X133815545Y-102785545D03*
X134204455Y-103174455D03*
X134300000Y-90930000D03*
X134770000Y-84780000D03*
X135180000Y-66250000D03*
X136110000Y-84890000D03*
X136180000Y-66260000D03*
X136860002Y-102620000D03*
X137180000Y-66210000D03*
X137200000Y-76010000D03*
X137409814Y-102634469D03*
X137790000Y-85040000D03*
X139030000Y-66480000D03*
X140330000Y-102080000D03*
X140600000Y-102690000D03*
X141180000Y-102790000D03*
X141240000Y-66480000D03*
X142208659Y-100138659D03*
X143210000Y-72800000D03*
X143410000Y-99670000D03*
X143410000Y-100240000D03*
X143430000Y-66480000D03*
X143890000Y-101290000D03*
X144390000Y-107825000D03*
X144940000Y-103181000D03*
X145870000Y-93605000D03*
X145870000Y-94155000D03*
X146850000Y-99870000D03*
X148170000Y-66190000D03*
X148170000Y-105930000D03*
X149180000Y-63180000D03*
X150240000Y-99140000D03*
X151024294Y-60184292D03*
X151620000Y-61115000D03*
X151640000Y-60335000D03*
X152935000Y-60166148D03*
X153110000Y-103050000D03*
X153750000Y-106235400D03*
X154905000Y-90930000D03*
X154905000Y-93870000D03*
X154970000Y-96420000D03*
X155160000Y-103380000D03*
X155455000Y-90930000D03*
X155455000Y-93870000D03*
X155519981Y-96415215D03*
X156170000Y-103440000D03*
X156230000Y-68850000D03*
X156680000Y-80660000D03*
X156710000Y-74370000D03*
X156800000Y-77370000D03*
X156970000Y-69568500D03*
X157680000Y-102810000D03*
X158470000Y-94190000D03*
X158610000Y-95320000D03*
X159320000Y-59895000D03*
X160730000Y-60660000D03*
X162050000Y-87730000D03*
X162200000Y-74585000D03*
X162200000Y-75135000D03*
X162210000Y-72585000D03*
X162210000Y-73135000D03*
X162290000Y-83710000D03*
X162480000Y-63960000D03*
X162600000Y-91720000D03*
X163970000Y-83520000D03*
X164205000Y-91270000D03*
X164250000Y-86810000D03*
X165060000Y-62740000D03*
X165540000Y-105860000D03*
X165780000Y-89860000D03*
X166300000Y-105660000D03*
X166960000Y-86680000D03*
X167610000Y-64000000D03*
X167950000Y-68800000D03*
X168810000Y-74155000D03*
X168810000Y-74705000D03*
X169220000Y-105710000D03*
X169310000Y-90030000D03*
X169350000Y-86800000D03*
X169760000Y-70820000D03*
X170120000Y-83628800D03*
X170490000Y-67350000D03*
X170640000Y-77930000D03*
X170840000Y-105910000D03*
X171190000Y-78260000D03*
X171490000Y-91380000D03*
X171738200Y-90060998D03*
X171820000Y-86810000D03*
X171890000Y-105770000D03*
X171930000Y-89570000D03*
X172830000Y-105790000D03*
X173530000Y-87870000D03*
X173860000Y-77170000D03*
X175219836Y-68509836D03*
X175520454Y-94765000D03*
X175520454Y-95315000D03*
X175700000Y-75530000D03*
X175880000Y-86760000D03*
X176320000Y-68310000D03*
X177241718Y-74429850D03*
X177247278Y-101847278D03*
X177680000Y-73950000D03*
X177800150Y-65730000D03*
X177890000Y-101490000D03*
X177935000Y-86240000D03*
X178210000Y-65220000D03*
X178285085Y-99970326D03*
X178485000Y-86240000D03*
X178775000Y-100460000D03*
X179420000Y-85840000D03*
X179795545Y-86455545D03*
X180074999Y-102453434D03*
X180184455Y-86844455D03*
X180650000Y-101730000D03*
X180810000Y-67930000D03*
X181335545Y-87655545D03*
X181580000Y-71340000D03*
X181724455Y-88044455D03*
X181850000Y-67670000D03*
X181940000Y-89430000D03*
X181955000Y-102020000D03*
X182435000Y-79580000D03*
X182460000Y-97540000D03*
X182505000Y-102020000D03*
X182985000Y-79580000D03*
X183659288Y-99230712D03*
X184260000Y-99960000D03*
X185198978Y-96785998D03*
X185350000Y-91300000D03*
X187065000Y-88245000D03*
X187420000Y-85240000D03*
X187590000Y-92680000D03*
X188100000Y-94790735D03*
X188280000Y-92140000D03*
X188750000Y-91940000D03*
X188950000Y-86740000D03*
X189560000Y-74320000D03*
X189719606Y-64575000D03*
X189734371Y-73758779D03*
X190210000Y-67881665D03*
X190350000Y-86860000D03*
X190550000Y-71450000D03*
X190910000Y-70860000D03*
X190990000Y-67450000D03*
X191210000Y-75530000D03*
X191530000Y-102250000D03*
X191545000Y-90060000D03*
X191854528Y-65530000D03*
X192040000Y-75600000D03*
X192205545Y-70424455D03*
X192300000Y-68070000D03*
X192594455Y-70035545D03*
X193050000Y-90450000D03*
X193470000Y-67460000D03*
D11*
X91320000Y-68740000D03*
D12*
X141750000Y-103310000D03*
X150920000Y-103070000D03*
X186980000Y-89710000D03*
D13*
X75140000Y-74750000D03*
X75700000Y-75240000D03*
X79935739Y-78014261D03*
X83510000Y-60840000D03*
X84260000Y-60850000D03*
X84940000Y-85820000D03*
X84940000Y-86496667D03*
X84940000Y-87173333D03*
X84940000Y-87850000D03*
X85100000Y-60840000D03*
X85970000Y-60840000D03*
X86760000Y-60820000D03*
X87600000Y-60820000D03*
X90630000Y-96330000D03*
X91580000Y-72510000D03*
X92030000Y-66350000D03*
X92760000Y-89050000D03*
X92889000Y-99130000D03*
X93100000Y-82630000D03*
X95490000Y-97550000D03*
X96080000Y-67500000D03*
X96100000Y-65230000D03*
X99870000Y-89990000D03*
X101530000Y-61760000D03*
X102360000Y-97470000D03*
X102920000Y-77340000D03*
X105960000Y-80760000D03*
X106400000Y-84870000D03*
X106610000Y-88660000D03*
X106617809Y-87876979D03*
X107120000Y-66030000D03*
X107390000Y-90130000D03*
X107720000Y-61760000D03*
X108710000Y-73830000D03*
X110260000Y-69530000D03*
X110440000Y-85620000D03*
X110446979Y-88702191D03*
X111244741Y-85620000D03*
X111256221Y-88702191D03*
X112049483Y-85620000D03*
X112065463Y-88702191D03*
X112640000Y-66170000D03*
X112854224Y-85620000D03*
X112874706Y-88702191D03*
X112930000Y-93310000D03*
X113658966Y-85620000D03*
X113683948Y-88702191D03*
X114010000Y-61750000D03*
X114370000Y-66530000D03*
X114463707Y-85620000D03*
X114493190Y-88702191D03*
X115268449Y-85620000D03*
X115520000Y-78600300D03*
X116073190Y-85620000D03*
X117680000Y-88780000D03*
X117820000Y-90080000D03*
X118070000Y-93310000D03*
X118430000Y-61760000D03*
X118460000Y-62420000D03*
X119680000Y-61730000D03*
X120380000Y-103600000D03*
X121120000Y-103590000D03*
X121800000Y-101716373D03*
X121800000Y-102510000D03*
X121800000Y-103260000D03*
X124950000Y-73160000D03*
X125230000Y-80450000D03*
X125400000Y-87940000D03*
X125990000Y-96780000D03*
X127070000Y-93960000D03*
X128040000Y-93980000D03*
X128210000Y-85260000D03*
X128560000Y-89400000D03*
X128860000Y-91380000D03*
X130830002Y-85930000D03*
X131110000Y-72910000D03*
X131750000Y-97240000D03*
X134150000Y-72910000D03*
X134620000Y-99720000D03*
X135490000Y-93980000D03*
X137270000Y-95640000D03*
X137280000Y-94980000D03*
X137320000Y-100430000D03*
X138540000Y-95580000D03*
X138830000Y-86090000D03*
X139990000Y-75880000D03*
X140160000Y-82800000D03*
X140170000Y-85410000D03*
X140200000Y-80570000D03*
X141160000Y-99770000D03*
X141610000Y-90720000D03*
X141630000Y-90060000D03*
X141950000Y-61590000D03*
X142460000Y-60840000D03*
X142690000Y-86840000D03*
X143240000Y-75830000D03*
X144900000Y-97040000D03*
X145870000Y-99440000D03*
X146160000Y-72870000D03*
X146160000Y-75790000D03*
X146230000Y-67230000D03*
X147940000Y-60810000D03*
X148860000Y-96050000D03*
X149110000Y-75830000D03*
X149130000Y-92110000D03*
X149170000Y-72950000D03*
X149220000Y-67240000D03*
X149230000Y-81840000D03*
X152120000Y-81860000D03*
X152140000Y-72930000D03*
X152220000Y-75800000D03*
X152320000Y-60790000D03*
X153800000Y-66150000D03*
X155190000Y-81880000D03*
X155220000Y-87610000D03*
X155880000Y-84930000D03*
X156490000Y-66200000D03*
X156550000Y-90900000D03*
X156685000Y-61070000D03*
X157920000Y-60790000D03*
X158330000Y-73070000D03*
X158430000Y-97110000D03*
X159210000Y-103300000D03*
X161500000Y-66370000D03*
X161790000Y-89350000D03*
X162370000Y-80830000D03*
X163610000Y-73850000D03*
X163636667Y-80830000D03*
X163650000Y-71630000D03*
X163860000Y-84960000D03*
X164280000Y-77610000D03*
X164903333Y-80830000D03*
X165660000Y-91740000D03*
X165700000Y-73160000D03*
X166150000Y-75730000D03*
X166170000Y-80830000D03*
X166680000Y-88060000D03*
X166990000Y-77060000D03*
X167290000Y-80340000D03*
X167660000Y-75570000D03*
X168000000Y-105820000D03*
X168200000Y-62500000D03*
X168240000Y-93250000D03*
X169090000Y-88050000D03*
X169420000Y-73000000D03*
X170290000Y-97750000D03*
X170590000Y-59580000D03*
X170600000Y-94570000D03*
X170920000Y-79900000D03*
X171340000Y-59580000D03*
X171613449Y-94306143D03*
X172050000Y-59590000D03*
X172790000Y-59590000D03*
X173640000Y-67880000D03*
X173860000Y-78320000D03*
X173994102Y-103640000D03*
X174110000Y-102730000D03*
X174140000Y-62230000D03*
X174900000Y-72320000D03*
X174950000Y-62230000D03*
X175450000Y-71760000D03*
X175890000Y-93700000D03*
X176040000Y-71230000D03*
X176680000Y-105840000D03*
X176690000Y-103690000D03*
X176790000Y-89110000D03*
X176810000Y-62110000D03*
X176855227Y-87904773D03*
X177230000Y-102880000D03*
X177240000Y-69930000D03*
X177890000Y-93380000D03*
X177890000Y-96700000D03*
X178050000Y-92050000D03*
X180200000Y-95090000D03*
X180210000Y-93360000D03*
X181190000Y-102750000D03*
X181300000Y-90410000D03*
X181440000Y-78940000D03*
X181450000Y-76360000D03*
X181450000Y-77630000D03*
X182710000Y-105110000D03*
X182890000Y-95120000D03*
X183479195Y-100682739D03*
X183560000Y-95700000D03*
X183560000Y-103150000D03*
X183840000Y-62540000D03*
X183860000Y-61590000D03*
X184250000Y-96290000D03*
X184860000Y-78820000D03*
X184990000Y-62570000D03*
X185000000Y-106010000D03*
X185620000Y-105400000D03*
X185635000Y-98660000D03*
X186649998Y-101400000D03*
X186680000Y-98460000D03*
X186950000Y-92500000D03*
X187040000Y-94680000D03*
X188520000Y-86134206D03*
X189790000Y-107680000D03*
X189820000Y-99140000D03*
X190190000Y-88250000D03*
X190490000Y-107670000D03*
X190830000Y-96110000D03*
X190910000Y-99190000D03*
X191240000Y-91240000D03*
X191260000Y-107680000D03*
X191660000Y-93450000D03*
X192010000Y-107680000D03*
X192480000Y-89750000D03*
X193010000Y-93200000D03*
X193160000Y-104300000D03*
X193160000Y-105030000D03*
X193180000Y-105720000D03*
D14*
X89810000Y-71500000D03*
X91940000Y-73690000D03*
X102600000Y-88400000D03*
X115990000Y-98270400D03*
X121470000Y-66630000D03*
X125100000Y-90510000D03*
X172850000Y-80420000D03*
D15*
%TO.C,J27*%
X86190000Y-62065000D03*
X86190000Y-63315000D03*
%TD*%
D16*
X80910000Y-107390000D03*
X80920000Y-105480000D03*
X80920000Y-106450000D03*
X82240000Y-107410000D03*
X82250000Y-105500000D03*
X82250000Y-106470000D03*
X83000000Y-89490000D03*
X83150000Y-90980000D03*
X86560000Y-97700000D03*
X86630000Y-102580000D03*
X86940000Y-106840000D03*
X86970000Y-104560000D03*
X86970000Y-105730000D03*
X87690000Y-90950000D03*
X88630000Y-94360000D03*
X90040000Y-106860000D03*
X90050000Y-105800000D03*
X91310000Y-106860000D03*
X95940000Y-85690000D03*
X95940000Y-86740000D03*
X97340000Y-91820000D03*
X97340000Y-92780000D03*
X97850000Y-90830000D03*
X98340000Y-78020000D03*
X98340000Y-91820000D03*
X98340000Y-92780000D03*
X113170000Y-100560000D03*
X113190000Y-101470000D03*
X114180000Y-100580000D03*
X114200000Y-101490000D03*
D17*
%TO.C,J6*%
X88708920Y-100280860D02*
X88708920Y-101480860D01*
X88708920Y-104830000D02*
X88708920Y-106030000D01*
X88688320Y-101388860D02*
X89288320Y-101388860D01*
X96770600Y-101388860D02*
X97370600Y-101388860D01*
X97350000Y-100280860D02*
X97350000Y-101480860D01*
X97350000Y-104830000D02*
X97350000Y-106030000D01*
D18*
%TO.C,J2*%
X104360000Y-94890000D03*
X106900000Y-94890000D03*
%TO.C,J21*%
X112190000Y-106560000D03*
X114730000Y-106560000D03*
%TO.C,J7*%
X121367500Y-61270000D03*
X123907500Y-61270000D03*
X126447500Y-61270000D03*
X128987500Y-61270000D03*
%TO.C,J5*%
X133570000Y-61203600D03*
X136110000Y-61203600D03*
X138650000Y-61203600D03*
%TO.C,J3*%
X164570000Y-66340000D03*
X164570000Y-68880000D03*
D19*
%TO.C,J1*%
X74780000Y-96420000D03*
X79480000Y-93420000D03*
X79480000Y-99420000D03*
D20*
%TO.C,M701*%
X74640000Y-83650000D03*
X191030000Y-83650000D03*
D21*
%TO.C,J28*%
X102805114Y-71960000D03*
M02*
