%TF.GenerationSoftware,KiCad,Pcbnew,9.0.6*%
%TF.CreationDate,2025-12-26T12:29:46+03:00*%
%TF.ProjectId,CamTracker,43616d54-7261-4636-9b65-722e6b696361,rev?*%
%TF.SameCoordinates,Original*%
%TF.FileFunction,Soldermask,Bot*%
%TF.FilePolarity,Negative*%
%FSLAX46Y46*%
G04 Gerber Fmt 4.6, Leading zero omitted, Abs format (unit mm)*
G04 Created by KiCad (PCBNEW 9.0.6) date 2025-12-26 12:29:46*
%MOMM*%
%LPD*%
G01*
G04 APERTURE LIST*
G04 Aperture macros list*
%AMRoundRect*
0 Rectangle with rounded corners*
0 $1 Rounding radius*
0 $2 $3 $4 $5 $6 $7 $8 $9 X,Y pos of 4 corners*
0 Add a 4 corners polygon primitive as box body*
4,1,4,$2,$3,$4,$5,$6,$7,$8,$9,$2,$3,0*
0 Add four circle primitives for the rounded corners*
1,1,$1+$1,$2,$3*
1,1,$1+$1,$4,$5*
1,1,$1+$1,$6,$7*
1,1,$1+$1,$8,$9*
0 Add four rect primitives between the rounded corners*
20,1,$1+$1,$2,$3,$4,$5,0*
20,1,$1+$1,$4,$5,$6,$7,0*
20,1,$1+$1,$6,$7,$8,$9,0*
20,1,$1+$1,$8,$9,$2,$3,0*%
G04 Aperture macros list end*
%ADD10R,0.508000X0.660400*%
%ADD11R,0.660400X0.508000*%
%ADD12C,0.900000*%
%ADD13R,1.725000X1.725000*%
%ADD14C,1.725000*%
%ADD15C,4.500000*%
%ADD16C,1.000000*%
%ADD17C,0.750000*%
%ADD18R,0.600000X0.620000*%
%ADD19C,5.000000*%
%ADD20R,0.400000X1.350000*%
%ADD21R,1.450000X1.300000*%
%ADD22R,1.600000X1.400000*%
%ADD23R,1.900000X1.900000*%
%ADD24R,1.300000X1.920000*%
%ADD25R,0.810000X2.820000*%
%ADD26R,0.620000X0.600000*%
%ADD27RoundRect,0.059550X0.727450X0.337450X-0.727450X0.337450X-0.727450X-0.337450X0.727450X-0.337450X0*%
%ADD28C,0.550000*%
%ADD29RoundRect,0.050000X0.150000X0.475000X-0.150000X0.475000X-0.150000X-0.475000X0.150000X-0.475000X0*%
%ADD30O,1.200000X2.200000*%
%ADD31O,1.700000X1.200000*%
%ADD32O,1.200000X2.600000*%
%ADD33R,0.300000X0.900000*%
%ADD34R,2.350000X1.600000*%
%ADD35R,0.300000X0.530000*%
%ADD36R,0.250000X0.530000*%
%ADD37R,0.630000X0.350000*%
%ADD38R,0.600000X0.700000*%
%ADD39R,1.450000X0.950000*%
%ADD40R,1.920000X1.300000*%
%ADD41R,0.750000X1.600000*%
%ADD42R,2.100000X3.000000*%
%ADD43R,0.200000X0.850000*%
%ADD44R,0.850000X0.200000*%
%ADD45R,3.200000X3.200000*%
%ADD46R,0.850000X0.300000*%
%ADD47R,0.950000X1.450000*%
%ADD48R,1.470000X0.970000*%
%ADD49C,2.200000*%
%ADD50C,2.830000*%
%ADD51R,0.810000X0.940000*%
%ADD52R,0.500000X0.600000*%
%ADD53R,0.230000X0.350000*%
%ADD54R,0.600000X0.350000*%
%ADD55R,1.600000X0.750000*%
%ADD56R,3.000000X2.100000*%
%ADD57R,1.200000X1.500000*%
%ADD58R,1.900000X4.150000*%
%ADD59RoundRect,0.102000X-0.800000X0.500000X-0.800000X-0.500000X0.800000X-0.500000X0.800000X0.500000X0*%
%ADD60R,2.006600X1.092200*%
%ADD61R,2.700000X1.100000*%
%ADD62RoundRect,0.059250X0.472750X0.177750X-0.472750X0.177750X-0.472750X-0.177750X0.472750X-0.177750X0*%
%ADD63RoundRect,0.059250X0.177750X0.472750X-0.177750X0.472750X-0.177750X-0.472750X0.177750X-0.472750X0*%
%ADD64RoundRect,0.102000X3.650000X3.650000X-3.650000X3.650000X-3.650000X-3.650000X3.650000X-3.650000X0*%
%ADD65R,1.050000X1.300000*%
%ADD66R,0.650000X1.650000*%
%ADD67R,0.530000X0.300000*%
%ADD68R,0.530000X0.250000*%
%ADD69R,0.350000X0.630000*%
%ADD70R,0.700000X0.600000*%
%ADD71C,1.100000*%
%ADD72C,1.600000*%
%ADD73C,6.200000*%
%ADD74R,1.550000X0.300000*%
%ADD75R,2.750000X1.200000*%
%ADD76R,0.350000X0.600000*%
%ADD77R,0.950000X0.450000*%
%ADD78R,3.500000X4.300000*%
%ADD79R,0.820000X0.420000*%
G04 APERTURE END LIST*
D10*
%TO.C,R106*%
X106220000Y-90578800D03*
X106220000Y-89461200D03*
%TD*%
D11*
%TO.C,R18*%
X90478800Y-83300000D03*
X89361200Y-83300000D03*
%TD*%
%TO.C,R105*%
X91598800Y-82270000D03*
X90481200Y-82270000D03*
%TD*%
D12*
%TO.C,S2*%
X112140000Y-60835000D03*
X107890000Y-60835000D03*
%TD*%
D13*
%TO.C,J3*%
X164570000Y-68880000D03*
D14*
X164570000Y-66340000D03*
%TD*%
D13*
%TO.C,J5*%
X138650000Y-61203600D03*
D14*
X136110000Y-61203600D03*
X133570000Y-61203600D03*
%TD*%
D12*
%TO.C,S3*%
X105915000Y-60835000D03*
X101665000Y-60835000D03*
%TD*%
D15*
%TO.C,M701*%
X191030000Y-83650000D03*
%TD*%
D16*
%TO.C,J27*%
X86190000Y-62065000D03*
X86190000Y-63315000D03*
%TD*%
D17*
%TO.C,J13*%
X181690000Y-105840000D03*
X190190000Y-105840000D03*
%TD*%
D15*
%TO.C,M701*%
X74640000Y-83650000D03*
%TD*%
D12*
%TO.C,S1*%
X118415000Y-60835000D03*
X114165000Y-60835000D03*
%TD*%
D16*
%TO.C,TP15*%
X185610000Y-86880000D03*
%TD*%
%TO.C,TP2*%
X122140000Y-80690000D03*
%TD*%
%TO.C,TP3*%
X122260000Y-82820000D03*
%TD*%
D11*
%TO.C,R127*%
X101458800Y-88800000D03*
X100341200Y-88800000D03*
%TD*%
D18*
%TO.C,C95*%
X132570000Y-90575000D03*
X131650000Y-90575000D03*
%TD*%
D19*
%TO.C,2230*%
X152760000Y-71950000D03*
%TD*%
D10*
%TO.C,R9*%
X90515000Y-87181200D03*
X90515000Y-88298800D03*
%TD*%
D11*
%TO.C,R124*%
X189521200Y-87730000D03*
X190638800Y-87730000D03*
%TD*%
%TO.C,R26*%
X189521200Y-92394000D03*
X190638800Y-92394000D03*
%TD*%
D16*
%TO.C,TP19*%
X139030000Y-66480000D03*
%TD*%
D20*
%TO.C,J19*%
X105980000Y-103415000D03*
X105330000Y-103415000D03*
X104680000Y-103415000D03*
X104030000Y-103415000D03*
X103380000Y-103415000D03*
D21*
X108105000Y-106090000D03*
X101255000Y-106090000D03*
D22*
X107880000Y-103640000D03*
X101480000Y-103640000D03*
D23*
X105880000Y-106090000D03*
X103480000Y-106090000D03*
%TD*%
D10*
%TO.C,R93*%
X104510000Y-98222400D03*
X104510000Y-99340000D03*
%TD*%
D16*
%TO.C,TP8*%
X88875000Y-87350000D03*
%TD*%
D24*
%TO.C,C34*%
X90210000Y-62800000D03*
X92830000Y-62800000D03*
%TD*%
D25*
%TO.C,C28*%
X90840000Y-75420000D03*
X87640000Y-75420000D03*
%TD*%
D26*
%TO.C,C83*%
X151000000Y-96190000D03*
X151000000Y-95270000D03*
%TD*%
%TO.C,C121*%
X191040000Y-74520000D03*
X191040000Y-73600000D03*
%TD*%
D27*
%TO.C,U3*%
X94745000Y-88190000D03*
X94745000Y-89140000D03*
X94745000Y-90090000D03*
X92395000Y-90090000D03*
X92395000Y-88190000D03*
%TD*%
D11*
%TO.C,R48*%
X139681200Y-106820000D03*
X140798800Y-106820000D03*
%TD*%
D28*
%TO.C,J6*%
X96430000Y-102220000D03*
X89630000Y-102220000D03*
D29*
X95650000Y-100405000D03*
X95150000Y-100405000D03*
X94650000Y-100405000D03*
X94150000Y-100405000D03*
X93650000Y-100405000D03*
X93150000Y-100405000D03*
X92650000Y-100405000D03*
X92150000Y-100405000D03*
X91650000Y-100405000D03*
X91150000Y-100405000D03*
X90650000Y-100405000D03*
X90150000Y-100405000D03*
X90400000Y-101545000D03*
X90900000Y-101545000D03*
X91400000Y-101545000D03*
X91900000Y-101545000D03*
X92400000Y-101545000D03*
X92900000Y-101545000D03*
X93400000Y-101545000D03*
X93900000Y-101545000D03*
X94400000Y-101545000D03*
X94900000Y-101545000D03*
X95400000Y-101545000D03*
X95900000Y-101545000D03*
D30*
X97350000Y-100880860D03*
D31*
X97070600Y-101388860D03*
X88988320Y-101388860D03*
D30*
X88708920Y-100880860D03*
D32*
X97350000Y-105430000D03*
X88708920Y-105430000D03*
%TD*%
D26*
%TO.C,C145*%
X179740000Y-100240000D03*
X179740000Y-101160000D03*
%TD*%
D24*
%TO.C,C43*%
X99270000Y-84600000D03*
X101890000Y-84600000D03*
%TD*%
D13*
%TO.C,J2*%
X106900000Y-94890000D03*
D14*
X104360000Y-94890000D03*
%TD*%
D16*
%TO.C,TP49*%
X143295000Y-93344000D03*
%TD*%
%TO.C,TP36*%
X140300000Y-87650000D03*
%TD*%
D18*
%TO.C,C131*%
X189620000Y-91228000D03*
X190540000Y-91228000D03*
%TD*%
D26*
%TO.C,C148*%
X174910000Y-96340000D03*
X174910000Y-97260000D03*
%TD*%
D16*
%TO.C,TP35*%
X136950000Y-89050000D03*
%TD*%
D26*
%TO.C,C130*%
X172840000Y-94060000D03*
X172840000Y-93140000D03*
%TD*%
D11*
%TO.C,R122*%
X191028800Y-62880000D03*
X189911200Y-62880000D03*
%TD*%
D18*
%TO.C,C126*%
X176320000Y-102430000D03*
X175400000Y-102430000D03*
%TD*%
D16*
%TO.C,TP45*%
X144420000Y-101040000D03*
%TD*%
%TO.C,TP5*%
X157700000Y-102820000D03*
%TD*%
D33*
%TO.C,IC2*%
X81727500Y-68030000D03*
X81077500Y-68030000D03*
X80427500Y-68030000D03*
X79777500Y-68030000D03*
X79777500Y-65130000D03*
X80427500Y-65130000D03*
X81077500Y-65130000D03*
X81727500Y-65130000D03*
D34*
X80752500Y-66580000D03*
%TD*%
D26*
%TO.C,C111*%
X100870000Y-94850000D03*
X100870000Y-95770000D03*
%TD*%
D10*
%TO.C,R94*%
X105750000Y-98222400D03*
X105750000Y-99340000D03*
%TD*%
D26*
%TO.C,C86*%
X131846666Y-99720000D03*
X131846666Y-100640000D03*
%TD*%
D10*
%TO.C,R15*%
X78212500Y-65031200D03*
X78212500Y-66148800D03*
%TD*%
D26*
%TO.C,C22*%
X90715000Y-85880000D03*
X90715000Y-84960000D03*
%TD*%
%TO.C,C127*%
X175600000Y-85460000D03*
X175600000Y-84540000D03*
%TD*%
D25*
%TO.C,C66*%
X166220000Y-93810000D03*
X169420000Y-93810000D03*
%TD*%
D35*
%TO.C,U7*%
X94100000Y-96840000D03*
D36*
X93600000Y-96840000D03*
X93100000Y-96840000D03*
D35*
X92600000Y-96840000D03*
D37*
X92510000Y-96200000D03*
D35*
X92600000Y-95560000D03*
D36*
X93100000Y-95560000D03*
X93600000Y-95560000D03*
D35*
X94100000Y-95560000D03*
D37*
X94190000Y-96200000D03*
%TD*%
D18*
%TO.C,C149*%
X173360000Y-89560000D03*
X172440000Y-89560000D03*
%TD*%
D38*
%TO.C,Q10*%
X129870000Y-86470000D03*
X131770000Y-86470000D03*
X130820000Y-88470000D03*
%TD*%
D11*
%TO.C,R109*%
X100690000Y-96990000D03*
X101807600Y-96990000D03*
%TD*%
%TO.C,R119*%
X179491200Y-84600000D03*
X180608800Y-84600000D03*
%TD*%
D16*
%TO.C,TP40*%
X175080000Y-88680000D03*
%TD*%
D11*
%TO.C,R118*%
X189521200Y-90062000D03*
X190638800Y-90062000D03*
%TD*%
D10*
%TO.C,R7*%
X96360000Y-88241200D03*
X96360000Y-89358800D03*
%TD*%
D18*
%TO.C,C68*%
X164830000Y-93210000D03*
X163910000Y-93210000D03*
%TD*%
D11*
%TO.C,R117*%
X189521200Y-88896000D03*
X190638800Y-88896000D03*
%TD*%
D26*
%TO.C,C84*%
X132920000Y-99720000D03*
X132920000Y-100640000D03*
%TD*%
D39*
%TO.C,R13*%
X93760000Y-71610000D03*
X93760000Y-69610000D03*
%TD*%
D26*
%TO.C,C29*%
X92510000Y-75940000D03*
X92510000Y-75020000D03*
%TD*%
D40*
%TO.C,C25*%
X84082500Y-65190000D03*
X84082500Y-67810000D03*
%TD*%
D18*
%TO.C,C118*%
X191420000Y-68566667D03*
X190500000Y-68566667D03*
%TD*%
D10*
%TO.C,R116*%
X192140000Y-91151200D03*
X192140000Y-92268800D03*
%TD*%
D39*
%TO.C,R12*%
X79922500Y-61370000D03*
X79922500Y-63370000D03*
%TD*%
D11*
%TO.C,R96*%
X131198800Y-85000000D03*
X130081200Y-85000000D03*
%TD*%
D26*
%TO.C,C93*%
X139988333Y-100080000D03*
X139988333Y-101000000D03*
%TD*%
D18*
%TO.C,C32*%
X95360000Y-95610000D03*
X96280000Y-95610000D03*
%TD*%
D41*
%TO.C,J23*%
X145225000Y-88400000D03*
X146475000Y-88400000D03*
X147725000Y-88400000D03*
X148975000Y-88400000D03*
D42*
X142675000Y-85800000D03*
X151525000Y-85800000D03*
%TD*%
D11*
%TO.C,R92*%
X120848800Y-106500000D03*
X119731200Y-106500000D03*
%TD*%
D16*
%TO.C,TP48*%
X147320000Y-91030000D03*
%TD*%
D43*
%TO.C,U12*%
X135140000Y-91610000D03*
X135540000Y-91610000D03*
X135940000Y-91610000D03*
X136340000Y-91610000D03*
X136740000Y-91610000D03*
X137140000Y-91610000D03*
X137540000Y-91610000D03*
X137940000Y-91610000D03*
X138340000Y-91610000D03*
X138740000Y-91610000D03*
X139140000Y-91610000D03*
X139540000Y-91610000D03*
X139940000Y-91610000D03*
X140340000Y-91610000D03*
D44*
X141190000Y-92460000D03*
X141190000Y-92860000D03*
X141190000Y-93260000D03*
X141190000Y-93660000D03*
X141190000Y-94060000D03*
X141190000Y-94460000D03*
X141190000Y-94860000D03*
X141190000Y-95260000D03*
X141190000Y-95660000D03*
X141190000Y-96060000D03*
X141190000Y-96460000D03*
X141190000Y-96860000D03*
X141190000Y-97260000D03*
X141190000Y-97660000D03*
D43*
X140340000Y-98510000D03*
X139940000Y-98510000D03*
X139540000Y-98510000D03*
X139140000Y-98510000D03*
X138740000Y-98510000D03*
X138340000Y-98510000D03*
X137940000Y-98510000D03*
X137540000Y-98510000D03*
X137140000Y-98510000D03*
X136740000Y-98510000D03*
X136340000Y-98510000D03*
X135940000Y-98510000D03*
X135540000Y-98510000D03*
X135140000Y-98510000D03*
D44*
X134290000Y-97660000D03*
X134290000Y-97260000D03*
X134290000Y-96860000D03*
X134290000Y-96460000D03*
X134290000Y-96060000D03*
X134290000Y-95660000D03*
X134290000Y-95260000D03*
X134290000Y-94860000D03*
X134290000Y-94460000D03*
X134290000Y-94060000D03*
X134290000Y-93660000D03*
X134290000Y-93260000D03*
X134290000Y-92860000D03*
X134290000Y-92460000D03*
D45*
X137740000Y-95060000D03*
%TD*%
D18*
%TO.C,C44*%
X104030000Y-89890000D03*
X103110000Y-89890000D03*
%TD*%
%TO.C,C142*%
X173510000Y-101200000D03*
X172590000Y-101200000D03*
%TD*%
D46*
%TO.C,U15*%
X100200000Y-87480000D03*
X100200000Y-86980000D03*
X100200000Y-86480000D03*
X101800000Y-86480000D03*
X101800000Y-86980000D03*
X101800000Y-87480000D03*
%TD*%
D16*
%TO.C,TP16*%
X187650000Y-87000000D03*
%TD*%
D10*
%TO.C,R27*%
X99200000Y-89002400D03*
X99200000Y-90120000D03*
%TD*%
D18*
%TO.C,C128*%
X189620000Y-93700000D03*
X190540000Y-93700000D03*
%TD*%
D16*
%TO.C,TP18*%
X141240000Y-66480000D03*
%TD*%
D47*
%TO.C,R14*%
X83912500Y-63120000D03*
X81912500Y-63120000D03*
%TD*%
D10*
%TO.C,R97*%
X128570000Y-86911200D03*
X128570000Y-88028800D03*
%TD*%
D48*
%TO.C,C137*%
X174100000Y-86370000D03*
X174100000Y-84710000D03*
%TD*%
D13*
%TO.C,J21*%
X112190000Y-106560000D03*
D14*
X114730000Y-106560000D03*
%TD*%
D49*
%TO.C,J1*%
X79480000Y-103920000D03*
D50*
X79480000Y-93420000D03*
X79480000Y-99420000D03*
X74780000Y-96420000D03*
%TD*%
D26*
%TO.C,C132*%
X183820000Y-87500000D03*
X183820000Y-86580000D03*
%TD*%
D18*
%TO.C,C90*%
X143970000Y-97060000D03*
X144890000Y-97060000D03*
%TD*%
D40*
%TO.C,C124*%
X171550000Y-85360000D03*
X171550000Y-87980000D03*
%TD*%
D16*
%TO.C,TP34*%
X107460000Y-100040000D03*
%TD*%
D18*
%TO.C,C91*%
X132570000Y-89590000D03*
X131650000Y-89590000D03*
%TD*%
D40*
%TO.C,C122*%
X166850000Y-85360000D03*
X166850000Y-87980000D03*
%TD*%
D11*
%TO.C,R115*%
X170821200Y-90690000D03*
X171938800Y-90690000D03*
%TD*%
D18*
%TO.C,C11*%
X94160000Y-85620000D03*
X93240000Y-85620000D03*
%TD*%
D26*
%TO.C,C21*%
X89645000Y-85890000D03*
X89645000Y-84970000D03*
%TD*%
D18*
%TO.C,C14*%
X94140000Y-86690000D03*
X93220000Y-86690000D03*
%TD*%
D11*
%TO.C,R81*%
X161637600Y-100937500D03*
X160520000Y-100937500D03*
%TD*%
D26*
%TO.C,C146*%
X180710000Y-100240000D03*
X180710000Y-101160000D03*
%TD*%
D16*
%TO.C,TP22*%
X129200000Y-66320000D03*
%TD*%
D11*
%TO.C,R86*%
X78452400Y-73620000D03*
X79570000Y-73620000D03*
%TD*%
D24*
%TO.C,C33*%
X82582500Y-70110000D03*
X79962500Y-70110000D03*
%TD*%
D10*
%TO.C,R22*%
X91300000Y-98688800D03*
X91300000Y-97571200D03*
%TD*%
D51*
%TO.C,C136*%
X189600000Y-98230000D03*
X190940000Y-98230000D03*
%TD*%
D16*
%TO.C,TP39*%
X188140000Y-96540000D03*
%TD*%
D52*
%TO.C,LED5*%
X170980000Y-92140000D03*
X171880000Y-92140000D03*
%TD*%
D11*
%TO.C,R121*%
X191028800Y-64040000D03*
X189911200Y-64040000D03*
%TD*%
D10*
%TO.C,R125*%
X175310000Y-100251200D03*
X175310000Y-101368800D03*
%TD*%
D16*
%TO.C,TP31*%
X153110000Y-103070000D03*
%TD*%
D18*
%TO.C,C125*%
X176140000Y-60270000D03*
X175220000Y-60270000D03*
%TD*%
D11*
%TO.C,R91*%
X118248800Y-106520000D03*
X117131200Y-106520000D03*
%TD*%
D18*
%TO.C,C147*%
X173480000Y-100220000D03*
X172560000Y-100220000D03*
%TD*%
D10*
%TO.C,R83*%
X170460000Y-102351200D03*
X170460000Y-103468800D03*
%TD*%
D18*
%TO.C,C94*%
X132570000Y-91560000D03*
X131650000Y-91560000D03*
%TD*%
D11*
%TO.C,R53*%
X78462400Y-72310000D03*
X79580000Y-72310000D03*
%TD*%
D10*
%TO.C,R98*%
X137460000Y-86061200D03*
X137460000Y-87178800D03*
%TD*%
D26*
%TO.C,C143*%
X182690000Y-100240000D03*
X182690000Y-101160000D03*
%TD*%
D53*
%TO.C,D18*%
X92700000Y-97955000D03*
X93080000Y-97955000D03*
D54*
X92890000Y-98605000D03*
%TD*%
D55*
%TO.C,J4*%
X158619000Y-88485000D03*
X158619000Y-89735000D03*
X158619000Y-90985000D03*
X158619000Y-92235000D03*
D56*
X161219000Y-85935000D03*
X161219000Y-94785000D03*
%TD*%
D26*
%TO.C,C92*%
X133993333Y-99720000D03*
X133993333Y-100640000D03*
%TD*%
D18*
%TO.C,C67*%
X161538800Y-102247500D03*
X160618800Y-102247500D03*
%TD*%
D16*
%TO.C,TP17*%
X149160000Y-100020000D03*
%TD*%
%TO.C,TP21*%
X127160000Y-66280000D03*
%TD*%
D52*
%TO.C,LED4*%
X177260000Y-84560000D03*
X178160000Y-84560000D03*
%TD*%
D16*
%TO.C,TP41*%
X101540000Y-91370000D03*
%TD*%
D57*
%TO.C,Y2*%
X173630000Y-95685000D03*
X173630000Y-97785000D03*
X172030000Y-97785000D03*
X172030000Y-95685000D03*
%TD*%
D16*
%TO.C,TP42*%
X143430000Y-66480000D03*
%TD*%
D10*
%TO.C,R28*%
X137320000Y-105198800D03*
X137320000Y-104081200D03*
%TD*%
D58*
%TO.C,C36*%
X82520000Y-87035000D03*
X82520000Y-80085000D03*
%TD*%
D33*
%TO.C,IC3*%
X91042500Y-64920000D03*
X91692500Y-64920000D03*
X92342500Y-64920000D03*
X92992500Y-64920000D03*
X92992500Y-67820000D03*
X92342500Y-67820000D03*
X91692500Y-67820000D03*
X91042500Y-67820000D03*
D34*
X92017500Y-66370000D03*
%TD*%
D26*
%TO.C,C35*%
X91410000Y-95600000D03*
X91410000Y-96520000D03*
%TD*%
D11*
%TO.C,R104*%
X100661200Y-98300000D03*
X101778800Y-98300000D03*
%TD*%
%TO.C,R120*%
X191458800Y-77210000D03*
X190341200Y-77210000D03*
%TD*%
D16*
%TO.C,TP11*%
X88220000Y-62800000D03*
%TD*%
D18*
%TO.C,C31*%
X95360000Y-96630000D03*
X96280000Y-96630000D03*
%TD*%
D51*
%TO.C,C138*%
X189940000Y-101160000D03*
X191280000Y-101160000D03*
%TD*%
D26*
%TO.C,C30*%
X93620000Y-75910000D03*
X93620000Y-74990000D03*
%TD*%
D18*
%TO.C,C88*%
X125390000Y-101070000D03*
X124470000Y-101070000D03*
%TD*%
D59*
%TO.C,S4*%
X88300000Y-92180000D03*
X85900000Y-94680000D03*
X88300000Y-97180000D03*
%TD*%
D11*
%TO.C,R21*%
X86538800Y-103680000D03*
X85421200Y-103680000D03*
%TD*%
D26*
%TO.C,C141*%
X185600000Y-100290000D03*
X185600000Y-101210000D03*
%TD*%
D60*
%TO.C,L10*%
X104110000Y-86077500D03*
X104110000Y-87982500D03*
%TD*%
D16*
%TO.C,TP37*%
X88700000Y-78090000D03*
%TD*%
D61*
%TO.C,L2*%
X91470000Y-80280000D03*
X91470000Y-77880000D03*
%TD*%
D10*
%TO.C,R17*%
X94627500Y-67898800D03*
X94627500Y-66781200D03*
%TD*%
D40*
%TO.C,C123*%
X169200000Y-85360000D03*
X169200000Y-87980000D03*
%TD*%
D11*
%TO.C,R126*%
X173221200Y-90700000D03*
X174338800Y-90700000D03*
%TD*%
D10*
%TO.C,R10*%
X90510000Y-89721200D03*
X90510000Y-90838800D03*
%TD*%
D18*
%TO.C,C119*%
X191420000Y-69640000D03*
X190500000Y-69640000D03*
%TD*%
D26*
%TO.C,C89*%
X138860000Y-100080000D03*
X138860000Y-101000000D03*
%TD*%
%TO.C,C112*%
X101891200Y-94880000D03*
X101891200Y-95800000D03*
%TD*%
D11*
%TO.C,R85*%
X169178800Y-96847500D03*
X168061200Y-96847500D03*
%TD*%
D16*
%TO.C,TP46*%
X142930000Y-90500000D03*
%TD*%
D39*
%TO.C,R19*%
X192220000Y-94630000D03*
X192220000Y-96630000D03*
%TD*%
D26*
%TO.C,C144*%
X181720000Y-100240000D03*
X181720000Y-101160000D03*
%TD*%
D62*
%TO.C,U14*%
X185655000Y-89790000D03*
X185655000Y-90290000D03*
X185655000Y-90790000D03*
X185655000Y-91290000D03*
X185655000Y-91790000D03*
X185655000Y-92290000D03*
X185655000Y-92790000D03*
X185655000Y-93290000D03*
X185655000Y-93790000D03*
X185655000Y-94290000D03*
X185655000Y-94790000D03*
X185655000Y-95290000D03*
X185655000Y-95790000D03*
X185655000Y-96290000D03*
X185655000Y-96790000D03*
X185655000Y-97290000D03*
D63*
X184960000Y-97985000D03*
X184460000Y-97985000D03*
X183960000Y-97985000D03*
X183460000Y-97985000D03*
X182960000Y-97985000D03*
X182460000Y-97985000D03*
X181960000Y-97985000D03*
X181460000Y-97985000D03*
X180960000Y-97985000D03*
X180460000Y-97985000D03*
X179960000Y-97985000D03*
X179460000Y-97985000D03*
X178960000Y-97985000D03*
X178460000Y-97985000D03*
X177960000Y-97985000D03*
X177460000Y-97985000D03*
D62*
X176765000Y-97290000D03*
X176765000Y-96790000D03*
X176765000Y-96290000D03*
X176765000Y-95790000D03*
X176765000Y-95290000D03*
X176765000Y-94790000D03*
X176765000Y-94290000D03*
X176765000Y-93790000D03*
X176765000Y-93290000D03*
X176765000Y-92790000D03*
X176765000Y-92290000D03*
X176765000Y-91790000D03*
X176765000Y-91290000D03*
X176765000Y-90790000D03*
X176765000Y-90290000D03*
X176765000Y-89790000D03*
D63*
X177460000Y-89095000D03*
X177960000Y-89095000D03*
X178460000Y-89095000D03*
X178960000Y-89095000D03*
X179460000Y-89095000D03*
X179960000Y-89095000D03*
X180460000Y-89095000D03*
X180960000Y-89095000D03*
X181460000Y-89095000D03*
X181960000Y-89095000D03*
X182460000Y-89095000D03*
X182960000Y-89095000D03*
X183460000Y-89095000D03*
X183960000Y-89095000D03*
X184460000Y-89095000D03*
X184960000Y-89095000D03*
D64*
X181210000Y-93540000D03*
%TD*%
D16*
%TO.C,TP43*%
X133180000Y-66340000D03*
%TD*%
D47*
%TO.C,R50*%
X142220000Y-106160000D03*
X144220000Y-106160000D03*
%TD*%
D65*
%TO.C,Y1*%
X148765000Y-93710000D03*
X148765000Y-96010000D03*
X147015000Y-96010000D03*
X147015000Y-93710000D03*
%TD*%
D66*
%TO.C,IC1*%
X125435000Y-92180000D03*
X126705000Y-92180000D03*
X127975000Y-92180000D03*
X129245000Y-92180000D03*
X129245000Y-99380000D03*
X127975000Y-99380000D03*
X126705000Y-99380000D03*
X125435000Y-99380000D03*
%TD*%
D18*
%TO.C,C139*%
X189610000Y-96960000D03*
X190530000Y-96960000D03*
%TD*%
D16*
%TO.C,TP27*%
X156680000Y-80650000D03*
%TD*%
D24*
%TO.C,C27*%
X97110000Y-80500000D03*
X94490000Y-80500000D03*
%TD*%
D10*
%TO.C,R84*%
X171700000Y-102321200D03*
X171700000Y-103438800D03*
%TD*%
D18*
%TO.C,C140*%
X190370000Y-100060000D03*
X191290000Y-100060000D03*
%TD*%
%TO.C,C45*%
X103100000Y-90970000D03*
X104020000Y-90970000D03*
%TD*%
D16*
%TO.C,TP38*%
X189880000Y-95190000D03*
%TD*%
D67*
%TO.C,U9*%
X99455000Y-96825000D03*
D68*
X99455000Y-97325000D03*
X99455000Y-97825000D03*
D67*
X99455000Y-98325000D03*
D69*
X98815000Y-98415000D03*
D67*
X98175000Y-98325000D03*
D68*
X98175000Y-97825000D03*
X98175000Y-97325000D03*
D67*
X98175000Y-96825000D03*
D69*
X98815000Y-96735000D03*
%TD*%
D18*
%TO.C,C113*%
X98660000Y-99360000D03*
X99580000Y-99360000D03*
%TD*%
%TO.C,C96*%
X130130000Y-83660000D03*
X131050000Y-83660000D03*
%TD*%
D16*
%TO.C,TP10*%
X84592500Y-70030000D03*
%TD*%
D18*
%TO.C,C69*%
X161538800Y-98317500D03*
X160618800Y-98317500D03*
%TD*%
D26*
%TO.C,C129*%
X187460000Y-100310000D03*
X187460000Y-101230000D03*
%TD*%
D18*
%TO.C,C87*%
X143970000Y-95931667D03*
X144890000Y-95931667D03*
%TD*%
D40*
%TO.C,C26*%
X88617500Y-67640000D03*
X88617500Y-65020000D03*
%TD*%
D26*
%TO.C,C70*%
X171560000Y-101120000D03*
X171560000Y-100200000D03*
%TD*%
%TO.C,C133*%
X188570000Y-100330000D03*
X188570000Y-101250000D03*
%TD*%
D70*
%TO.C,Q8*%
X138670000Y-105140000D03*
X138670000Y-103240000D03*
X140670000Y-104190000D03*
%TD*%
D13*
%TO.C,J7*%
X121367500Y-61270000D03*
D14*
X123907500Y-61270000D03*
X126447500Y-61270000D03*
X128987500Y-61270000D03*
%TD*%
D41*
%TO.C,J26*%
X130685000Y-103209000D03*
X129435000Y-103209000D03*
X128185000Y-103209000D03*
X126935000Y-103209000D03*
D42*
X133235000Y-105809000D03*
X124385000Y-105809000D03*
%TD*%
D26*
%TO.C,C120*%
X192113333Y-74520000D03*
X192113333Y-73600000D03*
%TD*%
D11*
%TO.C,R95*%
X142636200Y-94864000D03*
X143753800Y-94864000D03*
%TD*%
D26*
%TO.C,C38*%
X90240000Y-98660000D03*
X90240000Y-97740000D03*
%TD*%
D16*
%TO.C,TP28*%
X156790000Y-77350000D03*
%TD*%
D11*
%TO.C,R99*%
X132721200Y-83720000D03*
X133838800Y-83720000D03*
%TD*%
D10*
%TO.C,R47*%
X136210000Y-104091200D03*
X136210000Y-105208800D03*
%TD*%
D38*
%TO.C,Q11*%
X134275000Y-85830000D03*
X136175000Y-85830000D03*
X135225000Y-87830000D03*
%TD*%
D47*
%TO.C,R16*%
X89810000Y-69940000D03*
X91810000Y-69940000D03*
%TD*%
D26*
%TO.C,C82*%
X150970000Y-93360000D03*
X150970000Y-94280000D03*
%TD*%
D10*
%TO.C,R114*%
X105160000Y-90578800D03*
X105160000Y-89461200D03*
%TD*%
D71*
%TO.C,J28*%
X181240000Y-81960000D03*
D72*
X181240000Y-61960000D03*
D73*
X102805114Y-71960000D03*
D74*
X186515000Y-81210000D03*
X178965000Y-80960000D03*
X186515000Y-80710000D03*
X178965000Y-80460000D03*
X186515000Y-80210000D03*
X178965000Y-79960000D03*
X186515000Y-79710000D03*
X178965000Y-79460000D03*
X186515000Y-79210000D03*
X178965000Y-78960000D03*
X186515000Y-78710000D03*
X178965000Y-78460000D03*
X186515000Y-78210000D03*
X178965000Y-77960000D03*
X186515000Y-77710000D03*
X178965000Y-77460000D03*
X186515000Y-77210000D03*
X178965000Y-76960000D03*
X186515000Y-76710000D03*
X178965000Y-76460000D03*
X186515000Y-76210000D03*
X178965000Y-75960000D03*
X186515000Y-75710000D03*
X178965000Y-75460000D03*
X186515000Y-75210000D03*
X178965000Y-74960000D03*
X186515000Y-74710000D03*
X178965000Y-74460000D03*
X186515000Y-74210000D03*
X178965000Y-73960000D03*
X186515000Y-73710000D03*
X178965000Y-73460000D03*
X186515000Y-73210000D03*
X178965000Y-72960000D03*
X186515000Y-72710000D03*
X178965000Y-72460000D03*
X186515000Y-72210000D03*
X178965000Y-71960000D03*
X186515000Y-71710000D03*
X178965000Y-71460000D03*
X186515000Y-71210000D03*
X178965000Y-70960000D03*
X186515000Y-70710000D03*
X178965000Y-70460000D03*
X186515000Y-70210000D03*
X178965000Y-69960000D03*
X186515000Y-69710000D03*
X178965000Y-69460000D03*
X186515000Y-69210000D03*
X178965000Y-68960000D03*
X186515000Y-68710000D03*
X178965000Y-68460000D03*
X186515000Y-68210000D03*
X178965000Y-67960000D03*
X186515000Y-67710000D03*
X178965000Y-67460000D03*
X186515000Y-67210000D03*
X178965000Y-66960000D03*
X186515000Y-64710000D03*
X178965000Y-64460000D03*
X186515000Y-64210000D03*
X178965000Y-63960000D03*
X186515000Y-63710000D03*
X178965000Y-63460000D03*
X186515000Y-63210000D03*
X178965000Y-62960000D03*
X186515000Y-62710000D03*
D75*
X185740000Y-82310000D03*
X185740000Y-61610000D03*
%TD*%
D16*
%TO.C,TP44*%
X146860000Y-99860000D03*
%TD*%
D76*
%TO.C,D23*%
X164570000Y-94250000D03*
X163920000Y-94250000D03*
%TD*%
D46*
%TO.C,U6*%
X95950000Y-77560000D03*
X95950000Y-78060000D03*
X95950000Y-78560000D03*
X94350000Y-78560000D03*
X94350000Y-78060000D03*
X94350000Y-77560000D03*
%TD*%
D11*
%TO.C,R123*%
X191468800Y-78650000D03*
X190351200Y-78650000D03*
%TD*%
D10*
%TO.C,R107*%
X94750000Y-75958800D03*
X94750000Y-74841200D03*
%TD*%
D16*
%TO.C,TP29*%
X156710000Y-74370000D03*
%TD*%
D77*
%TO.C,U11*%
X169130000Y-98407500D03*
X169130000Y-99677500D03*
X169130000Y-100947500D03*
X169130000Y-102217500D03*
X163330000Y-102217500D03*
X163330000Y-100947500D03*
X163330000Y-99677500D03*
X163330000Y-98407500D03*
D78*
X166230000Y-100312500D03*
%TD*%
D26*
%TO.C,C135*%
X181420000Y-86610000D03*
X181420000Y-85690000D03*
%TD*%
D18*
%TO.C,C46*%
X101380000Y-89850000D03*
X100460000Y-89850000D03*
%TD*%
D79*
%TO.C,D1*%
X107980000Y-92320000D03*
X105680000Y-92320000D03*
%TD*%
D26*
%TO.C,C85*%
X130773333Y-99720000D03*
X130773333Y-100640000D03*
%TD*%
D11*
%TO.C,R8*%
X94158800Y-91660000D03*
X93041200Y-91660000D03*
%TD*%
D16*
%TO.C,TP20*%
X135590000Y-81140000D03*
%TD*%
D10*
%TO.C,R108*%
X95930000Y-74788800D03*
X95930000Y-73671200D03*
%TD*%
D16*
%TO.C,TP6*%
X127020000Y-89340000D03*
%TD*%
%TO.C,TP47*%
X144890000Y-91080000D03*
%TD*%
%TO.C,TP33*%
X102590000Y-100040000D03*
%TD*%
D11*
%TO.C,R25*%
X174328800Y-92160000D03*
X173211200Y-92160000D03*
%TD*%
D18*
%TO.C,C97*%
X133700000Y-84960000D03*
X132780000Y-84960000D03*
%TD*%
D11*
%TO.C,R82*%
X161637600Y-99627500D03*
X160520000Y-99627500D03*
%TD*%
D26*
%TO.C,C134*%
X173910000Y-94060000D03*
X173910000Y-93140000D03*
%TD*%
G36*
X194184893Y-59223264D02*
G01*
X194272377Y-59253875D01*
X194285226Y-59259197D01*
X194576025Y-59399239D01*
X194588195Y-59405965D01*
X194861486Y-59577685D01*
X194872827Y-59585732D01*
X195125173Y-59786971D01*
X195135541Y-59796237D01*
X195363762Y-60024458D01*
X195373028Y-60034826D01*
X195574267Y-60287172D01*
X195582314Y-60298513D01*
X195754034Y-60571804D01*
X195760760Y-60583974D01*
X195900798Y-60874766D01*
X195906120Y-60887613D01*
X196012724Y-61192270D01*
X196016573Y-61205632D01*
X196086891Y-61513713D01*
X196090000Y-61541306D01*
X196090000Y-105738693D01*
X196086891Y-105766286D01*
X196016573Y-106074367D01*
X196012724Y-106087729D01*
X195906120Y-106392386D01*
X195900798Y-106405233D01*
X195760760Y-106696025D01*
X195754034Y-106708195D01*
X195582314Y-106981486D01*
X195574267Y-106992827D01*
X195373028Y-107245173D01*
X195363762Y-107255541D01*
X195135541Y-107483762D01*
X195125173Y-107493028D01*
X194872827Y-107694267D01*
X194861486Y-107702314D01*
X194588195Y-107874034D01*
X194576025Y-107880760D01*
X194285231Y-108020799D01*
X194272383Y-108026121D01*
X194175015Y-108060191D01*
X194105236Y-108063752D01*
X194044609Y-108029023D01*
X194012382Y-107967029D01*
X194010061Y-107943124D01*
X194019940Y-59340281D01*
X194039638Y-59273245D01*
X194092451Y-59227501D01*
X194161612Y-59217572D01*
X194184893Y-59223264D01*
G37*
G36*
X71595451Y-59261449D02*
G01*
X71627679Y-59323442D01*
X71630000Y-59347324D01*
X71630000Y-107932673D01*
X71610315Y-107999712D01*
X71557511Y-108045467D01*
X71488353Y-108055411D01*
X71465046Y-108049715D01*
X71397614Y-108026120D01*
X71384766Y-108020798D01*
X71093974Y-107880760D01*
X71081804Y-107874034D01*
X70808513Y-107702314D01*
X70797172Y-107694267D01*
X70544826Y-107493028D01*
X70534458Y-107483762D01*
X70306237Y-107255541D01*
X70296971Y-107245173D01*
X70095732Y-106992827D01*
X70087685Y-106981486D01*
X69915965Y-106708195D01*
X69909239Y-106696025D01*
X69769201Y-106405233D01*
X69763879Y-106392386D01*
X69657275Y-106087729D01*
X69653426Y-106074366D01*
X69581606Y-105759700D01*
X69579277Y-105745992D01*
X69551337Y-105498026D01*
X69550557Y-105484117D01*
X69559453Y-61716878D01*
X69560233Y-61703019D01*
X69579277Y-61534007D01*
X69581606Y-61520299D01*
X69653426Y-61205633D01*
X69657275Y-61192270D01*
X69763879Y-60887613D01*
X69769201Y-60874766D01*
X69909239Y-60583974D01*
X69915965Y-60571804D01*
X70087685Y-60298513D01*
X70095732Y-60287172D01*
X70296971Y-60034826D01*
X70306237Y-60024458D01*
X70534458Y-59796237D01*
X70544826Y-59786971D01*
X70797172Y-59585732D01*
X70808513Y-59577685D01*
X71081804Y-59405965D01*
X71093974Y-59399239D01*
X71384774Y-59259197D01*
X71397621Y-59253876D01*
X71465045Y-59230283D01*
X71534824Y-59226721D01*
X71595451Y-59261449D01*
G37*
M02*
